<?xml version="1.0" encoding="utf-8" standalone="no"?>
<!DOCTYPE svg PUBLIC "-//W3C//DTD SVG 1.1//EN"
  "http://www.w3.org/Graphics/SVG/1.1/DTD/svg11.dtd">
<!-- Created with matplotlib (https://matplotlib.org/) -->
<svg height="345.6pt" version="1.1" viewBox="0 0 460.8 345.6" width="460.8pt" xmlns="http://www.w3.org/2000/svg" xmlns:xlink="http://www.w3.org/1999/xlink">
 <defs>
  <style type="text/css">
*{stroke-linecap:butt;stroke-linejoin:round;}
  </style>
 </defs>
 <g id="figure_1">
  <g id="patch_1">
   <path d="M 0 345.6 
L 460.8 345.6 
L 460.8 0 
L 0 0 
z
" style="fill:#ffffff;"/>
  </g>
  <g id="axes_1">
   <g id="patch_2">
    <path d="M 57.6 307.584 
L 414.72 307.584 
L 414.72 41.472 
L 57.6 41.472 
z
" style="fill:#ffffff;"/>
   </g>
   <g id="matplotlib.axis_1">
    <g id="xtick_1">
     <g id="line2d_1">
      <path clip-path="url(#p5913f6b061)" d="M 73.832727 307.584 
L 73.832727 41.472 
" style="fill:none;stroke:#b0b0b0;stroke-linecap:square;stroke-width:0.8;"/>
     </g>
     <g id="line2d_2">
      <defs>
       <path d="M 0 0 
L 0 3.5 
" id="m202a8895c4" style="stroke:#000000;stroke-width:0.8;"/>
      </defs>
      <g>
       <use style="stroke:#000000;stroke-width:0.8;" x="73.832727" xlink:href="#m202a8895c4" y="307.584"/>
      </g>
     </g>
     <g id="text_1">
      <!-- 0 -->
      <defs>
       <path d="M 31.78125 66.40625 
Q 24.171875 66.40625 20.328125 58.90625 
Q 16.5 51.421875 16.5 36.375 
Q 16.5 21.390625 20.328125 13.890625 
Q 24.171875 6.390625 31.78125 6.390625 
Q 39.453125 6.390625 43.28125 13.890625 
Q 47.125 21.390625 47.125 36.375 
Q 47.125 51.421875 43.28125 58.90625 
Q 39.453125 66.40625 31.78125 66.40625 
z
M 31.78125 74.21875 
Q 44.046875 74.21875 50.515625 64.515625 
Q 56.984375 54.828125 56.984375 36.375 
Q 56.984375 17.96875 50.515625 8.265625 
Q 44.046875 -1.421875 31.78125 -1.421875 
Q 19.53125 -1.421875 13.0625 8.265625 
Q 6.59375 17.96875 6.59375 36.375 
Q 6.59375 54.828125 13.0625 64.515625 
Q 19.53125 74.21875 31.78125 74.21875 
z
" id="DejaVuSans-48"/>
      </defs>
      <g transform="translate(70.651477 322.182437)scale(0.1 -0.1)">
       <use xlink:href="#DejaVuSans-48"/>
      </g>
     </g>
    </g>
    <g id="xtick_2">
     <g id="line2d_3">
      <path clip-path="url(#p5913f6b061)" d="M 114.618474 307.584 
L 114.618474 41.472 
" style="fill:none;stroke:#b0b0b0;stroke-linecap:square;stroke-width:0.8;"/>
     </g>
     <g id="line2d_4">
      <g>
       <use style="stroke:#000000;stroke-width:0.8;" x="114.618474" xlink:href="#m202a8895c4" y="307.584"/>
      </g>
     </g>
     <g id="text_2">
      <!-- 25 -->
      <defs>
       <path d="M 19.1875 8.296875 
L 53.609375 8.296875 
L 53.609375 0 
L 7.328125 0 
L 7.328125 8.296875 
Q 12.9375 14.109375 22.625 23.890625 
Q 32.328125 33.6875 34.8125 36.53125 
Q 39.546875 41.84375 41.421875 45.53125 
Q 43.3125 49.21875 43.3125 52.78125 
Q 43.3125 58.59375 39.234375 62.25 
Q 35.15625 65.921875 28.609375 65.921875 
Q 23.96875 65.921875 18.8125 64.3125 
Q 13.671875 62.703125 7.8125 59.421875 
L 7.8125 69.390625 
Q 13.765625 71.78125 18.9375 73 
Q 24.125 74.21875 28.421875 74.21875 
Q 39.75 74.21875 46.484375 68.546875 
Q 53.21875 62.890625 53.21875 53.421875 
Q 53.21875 48.921875 51.53125 44.890625 
Q 49.859375 40.875 45.40625 35.40625 
Q 44.1875 33.984375 37.640625 27.21875 
Q 31.109375 20.453125 19.1875 8.296875 
z
" id="DejaVuSans-50"/>
       <path d="M 10.796875 72.90625 
L 49.515625 72.90625 
L 49.515625 64.59375 
L 19.828125 64.59375 
L 19.828125 46.734375 
Q 21.96875 47.46875 24.109375 47.828125 
Q 26.265625 48.1875 28.421875 48.1875 
Q 40.625 48.1875 47.75 41.5 
Q 54.890625 34.8125 54.890625 23.390625 
Q 54.890625 11.625 47.5625 5.09375 
Q 40.234375 -1.421875 26.90625 -1.421875 
Q 22.3125 -1.421875 17.546875 -0.640625 
Q 12.796875 0.140625 7.71875 1.703125 
L 7.71875 11.625 
Q 12.109375 9.234375 16.796875 8.0625 
Q 21.484375 6.890625 26.703125 6.890625 
Q 35.15625 6.890625 40.078125 11.328125 
Q 45.015625 15.765625 45.015625 23.390625 
Q 45.015625 31 40.078125 35.4375 
Q 35.15625 39.890625 26.703125 39.890625 
Q 22.75 39.890625 18.8125 39.015625 
Q 14.890625 38.140625 10.796875 36.28125 
z
" id="DejaVuSans-53"/>
      </defs>
      <g transform="translate(108.255974 322.182437)scale(0.1 -0.1)">
       <use xlink:href="#DejaVuSans-50"/>
       <use x="63.623047" xlink:href="#DejaVuSans-53"/>
      </g>
     </g>
    </g>
    <g id="xtick_3">
     <g id="line2d_5">
      <path clip-path="url(#p5913f6b061)" d="M 155.404221 307.584 
L 155.404221 41.472 
" style="fill:none;stroke:#b0b0b0;stroke-linecap:square;stroke-width:0.8;"/>
     </g>
     <g id="line2d_6">
      <g>
       <use style="stroke:#000000;stroke-width:0.8;" x="155.404221" xlink:href="#m202a8895c4" y="307.584"/>
      </g>
     </g>
     <g id="text_3">
      <!-- 50 -->
      <g transform="translate(149.041721 322.182437)scale(0.1 -0.1)">
       <use xlink:href="#DejaVuSans-53"/>
       <use x="63.623047" xlink:href="#DejaVuSans-48"/>
      </g>
     </g>
    </g>
    <g id="xtick_4">
     <g id="line2d_7">
      <path clip-path="url(#p5913f6b061)" d="M 196.189968 307.584 
L 196.189968 41.472 
" style="fill:none;stroke:#b0b0b0;stroke-linecap:square;stroke-width:0.8;"/>
     </g>
     <g id="line2d_8">
      <g>
       <use style="stroke:#000000;stroke-width:0.8;" x="196.189968" xlink:href="#m202a8895c4" y="307.584"/>
      </g>
     </g>
     <g id="text_4">
      <!-- 75 -->
      <defs>
       <path d="M 8.203125 72.90625 
L 55.078125 72.90625 
L 55.078125 68.703125 
L 28.609375 0 
L 18.3125 0 
L 43.21875 64.59375 
L 8.203125 64.59375 
z
" id="DejaVuSans-55"/>
      </defs>
      <g transform="translate(189.827468 322.182437)scale(0.1 -0.1)">
       <use xlink:href="#DejaVuSans-55"/>
       <use x="63.623047" xlink:href="#DejaVuSans-53"/>
      </g>
     </g>
    </g>
    <g id="xtick_5">
     <g id="line2d_9">
      <path clip-path="url(#p5913f6b061)" d="M 236.975715 307.584 
L 236.975715 41.472 
" style="fill:none;stroke:#b0b0b0;stroke-linecap:square;stroke-width:0.8;"/>
     </g>
     <g id="line2d_10">
      <g>
       <use style="stroke:#000000;stroke-width:0.8;" x="236.975715" xlink:href="#m202a8895c4" y="307.584"/>
      </g>
     </g>
     <g id="text_5">
      <!-- 100 -->
      <defs>
       <path d="M 12.40625 8.296875 
L 28.515625 8.296875 
L 28.515625 63.921875 
L 10.984375 60.40625 
L 10.984375 69.390625 
L 28.421875 72.90625 
L 38.28125 72.90625 
L 38.28125 8.296875 
L 54.390625 8.296875 
L 54.390625 0 
L 12.40625 0 
z
" id="DejaVuSans-49"/>
      </defs>
      <g transform="translate(227.431965 322.182437)scale(0.1 -0.1)">
       <use xlink:href="#DejaVuSans-49"/>
       <use x="63.623047" xlink:href="#DejaVuSans-48"/>
       <use x="127.246094" xlink:href="#DejaVuSans-48"/>
      </g>
     </g>
    </g>
    <g id="xtick_6">
     <g id="line2d_11">
      <path clip-path="url(#p5913f6b061)" d="M 277.761462 307.584 
L 277.761462 41.472 
" style="fill:none;stroke:#b0b0b0;stroke-linecap:square;stroke-width:0.8;"/>
     </g>
     <g id="line2d_12">
      <g>
       <use style="stroke:#000000;stroke-width:0.8;" x="277.761462" xlink:href="#m202a8895c4" y="307.584"/>
      </g>
     </g>
     <g id="text_6">
      <!-- 125 -->
      <g transform="translate(268.217712 322.182437)scale(0.1 -0.1)">
       <use xlink:href="#DejaVuSans-49"/>
       <use x="63.623047" xlink:href="#DejaVuSans-50"/>
       <use x="127.246094" xlink:href="#DejaVuSans-53"/>
      </g>
     </g>
    </g>
    <g id="xtick_7">
     <g id="line2d_13">
      <path clip-path="url(#p5913f6b061)" d="M 318.547209 307.584 
L 318.547209 41.472 
" style="fill:none;stroke:#b0b0b0;stroke-linecap:square;stroke-width:0.8;"/>
     </g>
     <g id="line2d_14">
      <g>
       <use style="stroke:#000000;stroke-width:0.8;" x="318.547209" xlink:href="#m202a8895c4" y="307.584"/>
      </g>
     </g>
     <g id="text_7">
      <!-- 150 -->
      <g transform="translate(309.003459 322.182437)scale(0.1 -0.1)">
       <use xlink:href="#DejaVuSans-49"/>
       <use x="63.623047" xlink:href="#DejaVuSans-53"/>
       <use x="127.246094" xlink:href="#DejaVuSans-48"/>
      </g>
     </g>
    </g>
    <g id="xtick_8">
     <g id="line2d_15">
      <path clip-path="url(#p5913f6b061)" d="M 359.332956 307.584 
L 359.332956 41.472 
" style="fill:none;stroke:#b0b0b0;stroke-linecap:square;stroke-width:0.8;"/>
     </g>
     <g id="line2d_16">
      <g>
       <use style="stroke:#000000;stroke-width:0.8;" x="359.332956" xlink:href="#m202a8895c4" y="307.584"/>
      </g>
     </g>
     <g id="text_8">
      <!-- 175 -->
      <g transform="translate(349.789206 322.182437)scale(0.1 -0.1)">
       <use xlink:href="#DejaVuSans-49"/>
       <use x="63.623047" xlink:href="#DejaVuSans-55"/>
       <use x="127.246094" xlink:href="#DejaVuSans-53"/>
      </g>
     </g>
    </g>
    <g id="xtick_9">
     <g id="line2d_17">
      <path clip-path="url(#p5913f6b061)" d="M 400.118703 307.584 
L 400.118703 41.472 
" style="fill:none;stroke:#b0b0b0;stroke-linecap:square;stroke-width:0.8;"/>
     </g>
     <g id="line2d_18">
      <g>
       <use style="stroke:#000000;stroke-width:0.8;" x="400.118703" xlink:href="#m202a8895c4" y="307.584"/>
      </g>
     </g>
     <g id="text_9">
      <!-- 200 -->
      <g transform="translate(390.574953 322.182437)scale(0.1 -0.1)">
       <use xlink:href="#DejaVuSans-50"/>
       <use x="63.623047" xlink:href="#DejaVuSans-48"/>
       <use x="127.246094" xlink:href="#DejaVuSans-48"/>
      </g>
     </g>
    </g>
    <g id="text_10">
     <!-- Generations -->
     <defs>
      <path d="M 59.515625 10.40625 
L 59.515625 29.984375 
L 43.40625 29.984375 
L 43.40625 38.09375 
L 69.28125 38.09375 
L 69.28125 6.78125 
Q 63.578125 2.734375 56.6875 0.65625 
Q 49.8125 -1.421875 42 -1.421875 
Q 24.90625 -1.421875 15.25 8.5625 
Q 5.609375 18.5625 5.609375 36.375 
Q 5.609375 54.25 15.25 64.234375 
Q 24.90625 74.21875 42 74.21875 
Q 49.125 74.21875 55.546875 72.453125 
Q 61.96875 70.703125 67.390625 67.28125 
L 67.390625 56.78125 
Q 61.921875 61.421875 55.765625 63.765625 
Q 49.609375 66.109375 42.828125 66.109375 
Q 29.4375 66.109375 22.71875 58.640625 
Q 16.015625 51.171875 16.015625 36.375 
Q 16.015625 21.625 22.71875 14.15625 
Q 29.4375 6.6875 42.828125 6.6875 
Q 48.046875 6.6875 52.140625 7.59375 
Q 56.25 8.5 59.515625 10.40625 
z
" id="DejaVuSans-71"/>
      <path d="M 56.203125 29.59375 
L 56.203125 25.203125 
L 14.890625 25.203125 
Q 15.484375 15.921875 20.484375 11.0625 
Q 25.484375 6.203125 34.421875 6.203125 
Q 39.59375 6.203125 44.453125 7.46875 
Q 49.3125 8.734375 54.109375 11.28125 
L 54.109375 2.78125 
Q 49.265625 0.734375 44.1875 -0.34375 
Q 39.109375 -1.421875 33.890625 -1.421875 
Q 20.796875 -1.421875 13.15625 6.1875 
Q 5.515625 13.8125 5.515625 26.8125 
Q 5.515625 40.234375 12.765625 48.109375 
Q 20.015625 56 32.328125 56 
Q 43.359375 56 49.78125 48.890625 
Q 56.203125 41.796875 56.203125 29.59375 
z
M 47.21875 32.234375 
Q 47.125 39.59375 43.09375 43.984375 
Q 39.0625 48.390625 32.421875 48.390625 
Q 24.90625 48.390625 20.390625 44.140625 
Q 15.875 39.890625 15.1875 32.171875 
z
" id="DejaVuSans-101"/>
      <path d="M 54.890625 33.015625 
L 54.890625 0 
L 45.90625 0 
L 45.90625 32.71875 
Q 45.90625 40.484375 42.875 44.328125 
Q 39.84375 48.1875 33.796875 48.1875 
Q 26.515625 48.1875 22.3125 43.546875 
Q 18.109375 38.921875 18.109375 30.90625 
L 18.109375 0 
L 9.078125 0 
L 9.078125 54.6875 
L 18.109375 54.6875 
L 18.109375 46.1875 
Q 21.34375 51.125 25.703125 53.5625 
Q 30.078125 56 35.796875 56 
Q 45.21875 56 50.046875 50.171875 
Q 54.890625 44.34375 54.890625 33.015625 
z
" id="DejaVuSans-110"/>
      <path d="M 41.109375 46.296875 
Q 39.59375 47.171875 37.8125 47.578125 
Q 36.03125 48 33.890625 48 
Q 26.265625 48 22.1875 43.046875 
Q 18.109375 38.09375 18.109375 28.8125 
L 18.109375 0 
L 9.078125 0 
L 9.078125 54.6875 
L 18.109375 54.6875 
L 18.109375 46.1875 
Q 20.953125 51.171875 25.484375 53.578125 
Q 30.03125 56 36.53125 56 
Q 37.453125 56 38.578125 55.875 
Q 39.703125 55.765625 41.0625 55.515625 
z
" id="DejaVuSans-114"/>
      <path d="M 34.28125 27.484375 
Q 23.390625 27.484375 19.1875 25 
Q 14.984375 22.515625 14.984375 16.5 
Q 14.984375 11.71875 18.140625 8.90625 
Q 21.296875 6.109375 26.703125 6.109375 
Q 34.1875 6.109375 38.703125 11.40625 
Q 43.21875 16.703125 43.21875 25.484375 
L 43.21875 27.484375 
z
M 52.203125 31.203125 
L 52.203125 0 
L 43.21875 0 
L 43.21875 8.296875 
Q 40.140625 3.328125 35.546875 0.953125 
Q 30.953125 -1.421875 24.3125 -1.421875 
Q 15.921875 -1.421875 10.953125 3.296875 
Q 6 8.015625 6 15.921875 
Q 6 25.140625 12.171875 29.828125 
Q 18.359375 34.515625 30.609375 34.515625 
L 43.21875 34.515625 
L 43.21875 35.40625 
Q 43.21875 41.609375 39.140625 45 
Q 35.0625 48.390625 27.6875 48.390625 
Q 23 48.390625 18.546875 47.265625 
Q 14.109375 46.140625 10.015625 43.890625 
L 10.015625 52.203125 
Q 14.9375 54.109375 19.578125 55.046875 
Q 24.21875 56 28.609375 56 
Q 40.484375 56 46.34375 49.84375 
Q 52.203125 43.703125 52.203125 31.203125 
z
" id="DejaVuSans-97"/>
      <path d="M 18.3125 70.21875 
L 18.3125 54.6875 
L 36.8125 54.6875 
L 36.8125 47.703125 
L 18.3125 47.703125 
L 18.3125 18.015625 
Q 18.3125 11.328125 20.140625 9.421875 
Q 21.96875 7.515625 27.59375 7.515625 
L 36.8125 7.515625 
L 36.8125 0 
L 27.59375 0 
Q 17.1875 0 13.234375 3.875 
Q 9.28125 7.765625 9.28125 18.015625 
L 9.28125 47.703125 
L 2.6875 47.703125 
L 2.6875 54.6875 
L 9.28125 54.6875 
L 9.28125 70.21875 
z
" id="DejaVuSans-116"/>
      <path d="M 9.421875 54.6875 
L 18.40625 54.6875 
L 18.40625 0 
L 9.421875 0 
z
M 9.421875 75.984375 
L 18.40625 75.984375 
L 18.40625 64.59375 
L 9.421875 64.59375 
z
" id="DejaVuSans-105"/>
      <path d="M 30.609375 48.390625 
Q 23.390625 48.390625 19.1875 42.75 
Q 14.984375 37.109375 14.984375 27.296875 
Q 14.984375 17.484375 19.15625 11.84375 
Q 23.34375 6.203125 30.609375 6.203125 
Q 37.796875 6.203125 41.984375 11.859375 
Q 46.1875 17.53125 46.1875 27.296875 
Q 46.1875 37.015625 41.984375 42.703125 
Q 37.796875 48.390625 30.609375 48.390625 
z
M 30.609375 56 
Q 42.328125 56 49.015625 48.375 
Q 55.71875 40.765625 55.71875 27.296875 
Q 55.71875 13.875 49.015625 6.21875 
Q 42.328125 -1.421875 30.609375 -1.421875 
Q 18.84375 -1.421875 12.171875 6.21875 
Q 5.515625 13.875 5.515625 27.296875 
Q 5.515625 40.765625 12.171875 48.375 
Q 18.84375 56 30.609375 56 
z
" id="DejaVuSans-111"/>
      <path d="M 44.28125 53.078125 
L 44.28125 44.578125 
Q 40.484375 46.53125 36.375 47.5 
Q 32.28125 48.484375 27.875 48.484375 
Q 21.1875 48.484375 17.84375 46.4375 
Q 14.5 44.390625 14.5 40.28125 
Q 14.5 37.15625 16.890625 35.375 
Q 19.28125 33.59375 26.515625 31.984375 
L 29.59375 31.296875 
Q 39.15625 29.25 43.1875 25.515625 
Q 47.21875 21.78125 47.21875 15.09375 
Q 47.21875 7.46875 41.1875 3.015625 
Q 35.15625 -1.421875 24.609375 -1.421875 
Q 20.21875 -1.421875 15.453125 -0.5625 
Q 10.6875 0.296875 5.421875 2 
L 5.421875 11.28125 
Q 10.40625 8.6875 15.234375 7.390625 
Q 20.0625 6.109375 24.8125 6.109375 
Q 31.15625 6.109375 34.5625 8.28125 
Q 37.984375 10.453125 37.984375 14.40625 
Q 37.984375 18.0625 35.515625 20.015625 
Q 33.0625 21.96875 24.703125 23.78125 
L 21.578125 24.515625 
Q 13.234375 26.265625 9.515625 29.90625 
Q 5.8125 33.546875 5.8125 39.890625 
Q 5.8125 47.609375 11.28125 51.796875 
Q 16.75 56 26.8125 56 
Q 31.78125 56 36.171875 55.265625 
Q 40.578125 54.546875 44.28125 53.078125 
z
" id="DejaVuSans-115"/>
     </defs>
     <g transform="translate(205.662344 335.860562)scale(0.1 -0.1)">
      <use xlink:href="#DejaVuSans-71"/>
      <use x="77.490234" xlink:href="#DejaVuSans-101"/>
      <use x="139.013672" xlink:href="#DejaVuSans-110"/>
      <use x="202.392578" xlink:href="#DejaVuSans-101"/>
      <use x="263.916016" xlink:href="#DejaVuSans-114"/>
      <use x="305.029297" xlink:href="#DejaVuSans-97"/>
      <use x="366.308594" xlink:href="#DejaVuSans-116"/>
      <use x="405.517578" xlink:href="#DejaVuSans-105"/>
      <use x="433.300781" xlink:href="#DejaVuSans-111"/>
      <use x="494.482422" xlink:href="#DejaVuSans-110"/>
      <use x="557.861328" xlink:href="#DejaVuSans-115"/>
     </g>
    </g>
   </g>
   <g id="matplotlib.axis_2">
    <g id="ytick_1">
     <g id="line2d_19">
      <path clip-path="url(#p5913f6b061)" d="M 57.6 284.479646 
L 414.72 284.479646 
" style="fill:none;stroke:#b0b0b0;stroke-linecap:square;stroke-width:0.8;"/>
     </g>
     <g id="line2d_20">
      <defs>
       <path d="M 0 0 
L -3.5 0 
" id="m095db82db8" style="stroke:#000000;stroke-width:0.8;"/>
      </defs>
      <g>
       <use style="stroke:#000000;stroke-width:0.8;" x="57.6" xlink:href="#m095db82db8" y="284.479646"/>
      </g>
     </g>
     <g id="text_11">
      <!-- 0 -->
      <g transform="translate(44.2375 288.278865)scale(0.1 -0.1)">
       <use xlink:href="#DejaVuSans-48"/>
      </g>
     </g>
    </g>
    <g id="ytick_2">
     <g id="line2d_21">
      <path clip-path="url(#p5913f6b061)" d="M 57.6 248.172783 
L 414.72 248.172783 
" style="fill:none;stroke:#b0b0b0;stroke-linecap:square;stroke-width:0.8;"/>
     </g>
     <g id="line2d_22">
      <g>
       <use style="stroke:#000000;stroke-width:0.8;" x="57.6" xlink:href="#m095db82db8" y="248.172783"/>
      </g>
     </g>
     <g id="text_12">
      <!-- 50 -->
      <g transform="translate(37.875 251.972002)scale(0.1 -0.1)">
       <use xlink:href="#DejaVuSans-53"/>
       <use x="63.623047" xlink:href="#DejaVuSans-48"/>
      </g>
     </g>
    </g>
    <g id="ytick_3">
     <g id="line2d_23">
      <path clip-path="url(#p5913f6b061)" d="M 57.6 211.865921 
L 414.72 211.865921 
" style="fill:none;stroke:#b0b0b0;stroke-linecap:square;stroke-width:0.8;"/>
     </g>
     <g id="line2d_24">
      <g>
       <use style="stroke:#000000;stroke-width:0.8;" x="57.6" xlink:href="#m095db82db8" y="211.865921"/>
      </g>
     </g>
     <g id="text_13">
      <!-- 100 -->
      <g transform="translate(31.5125 215.665139)scale(0.1 -0.1)">
       <use xlink:href="#DejaVuSans-49"/>
       <use x="63.623047" xlink:href="#DejaVuSans-48"/>
       <use x="127.246094" xlink:href="#DejaVuSans-48"/>
      </g>
     </g>
    </g>
    <g id="ytick_4">
     <g id="line2d_25">
      <path clip-path="url(#p5913f6b061)" d="M 57.6 175.559058 
L 414.72 175.559058 
" style="fill:none;stroke:#b0b0b0;stroke-linecap:square;stroke-width:0.8;"/>
     </g>
     <g id="line2d_26">
      <g>
       <use style="stroke:#000000;stroke-width:0.8;" x="57.6" xlink:href="#m095db82db8" y="175.559058"/>
      </g>
     </g>
     <g id="text_14">
      <!-- 150 -->
      <g transform="translate(31.5125 179.358277)scale(0.1 -0.1)">
       <use xlink:href="#DejaVuSans-49"/>
       <use x="63.623047" xlink:href="#DejaVuSans-53"/>
       <use x="127.246094" xlink:href="#DejaVuSans-48"/>
      </g>
     </g>
    </g>
    <g id="ytick_5">
     <g id="line2d_27">
      <path clip-path="url(#p5913f6b061)" d="M 57.6 139.252196 
L 414.72 139.252196 
" style="fill:none;stroke:#b0b0b0;stroke-linecap:square;stroke-width:0.8;"/>
     </g>
     <g id="line2d_28">
      <g>
       <use style="stroke:#000000;stroke-width:0.8;" x="57.6" xlink:href="#m095db82db8" y="139.252196"/>
      </g>
     </g>
     <g id="text_15">
      <!-- 200 -->
      <g transform="translate(31.5125 143.051414)scale(0.1 -0.1)">
       <use xlink:href="#DejaVuSans-50"/>
       <use x="63.623047" xlink:href="#DejaVuSans-48"/>
       <use x="127.246094" xlink:href="#DejaVuSans-48"/>
      </g>
     </g>
    </g>
    <g id="ytick_6">
     <g id="line2d_29">
      <path clip-path="url(#p5913f6b061)" d="M 57.6 102.945333 
L 414.72 102.945333 
" style="fill:none;stroke:#b0b0b0;stroke-linecap:square;stroke-width:0.8;"/>
     </g>
     <g id="line2d_30">
      <g>
       <use style="stroke:#000000;stroke-width:0.8;" x="57.6" xlink:href="#m095db82db8" y="102.945333"/>
      </g>
     </g>
     <g id="text_16">
      <!-- 250 -->
      <g transform="translate(31.5125 106.744552)scale(0.1 -0.1)">
       <use xlink:href="#DejaVuSans-50"/>
       <use x="63.623047" xlink:href="#DejaVuSans-53"/>
       <use x="127.246094" xlink:href="#DejaVuSans-48"/>
      </g>
     </g>
    </g>
    <g id="ytick_7">
     <g id="line2d_31">
      <path clip-path="url(#p5913f6b061)" d="M 57.6 66.638471 
L 414.72 66.638471 
" style="fill:none;stroke:#b0b0b0;stroke-linecap:square;stroke-width:0.8;"/>
     </g>
     <g id="line2d_32">
      <g>
       <use style="stroke:#000000;stroke-width:0.8;" x="57.6" xlink:href="#m095db82db8" y="66.638471"/>
      </g>
     </g>
     <g id="text_17">
      <!-- 300 -->
      <defs>
       <path d="M 40.578125 39.3125 
Q 47.65625 37.796875 51.625 33 
Q 55.609375 28.21875 55.609375 21.1875 
Q 55.609375 10.40625 48.1875 4.484375 
Q 40.765625 -1.421875 27.09375 -1.421875 
Q 22.515625 -1.421875 17.65625 -0.515625 
Q 12.796875 0.390625 7.625 2.203125 
L 7.625 11.71875 
Q 11.71875 9.328125 16.59375 8.109375 
Q 21.484375 6.890625 26.8125 6.890625 
Q 36.078125 6.890625 40.9375 10.546875 
Q 45.796875 14.203125 45.796875 21.1875 
Q 45.796875 27.640625 41.28125 31.265625 
Q 36.765625 34.90625 28.71875 34.90625 
L 20.21875 34.90625 
L 20.21875 43.015625 
L 29.109375 43.015625 
Q 36.375 43.015625 40.234375 45.921875 
Q 44.09375 48.828125 44.09375 54.296875 
Q 44.09375 59.90625 40.109375 62.90625 
Q 36.140625 65.921875 28.71875 65.921875 
Q 24.65625 65.921875 20.015625 65.03125 
Q 15.375 64.15625 9.8125 62.3125 
L 9.8125 71.09375 
Q 15.4375 72.65625 20.34375 73.4375 
Q 25.25 74.21875 29.59375 74.21875 
Q 40.828125 74.21875 47.359375 69.109375 
Q 53.90625 64.015625 53.90625 55.328125 
Q 53.90625 49.265625 50.4375 45.09375 
Q 46.96875 40.921875 40.578125 39.3125 
z
" id="DejaVuSans-51"/>
      </defs>
      <g transform="translate(31.5125 70.437689)scale(0.1 -0.1)">
       <use xlink:href="#DejaVuSans-51"/>
       <use x="63.623047" xlink:href="#DejaVuSans-48"/>
       <use x="127.246094" xlink:href="#DejaVuSans-48"/>
      </g>
     </g>
    </g>
    <g id="text_18">
     <!-- Fitness -->
     <defs>
      <path d="M 9.8125 72.90625 
L 51.703125 72.90625 
L 51.703125 64.59375 
L 19.671875 64.59375 
L 19.671875 43.109375 
L 48.578125 43.109375 
L 48.578125 34.8125 
L 19.671875 34.8125 
L 19.671875 0 
L 9.8125 0 
z
" id="DejaVuSans-70"/>
     </defs>
     <g transform="translate(25.432812 192.202219)rotate(-90)scale(0.1 -0.1)">
      <use xlink:href="#DejaVuSans-70"/>
      <use x="57.410156" xlink:href="#DejaVuSans-105"/>
      <use x="85.193359" xlink:href="#DejaVuSans-116"/>
      <use x="124.402344" xlink:href="#DejaVuSans-110"/>
      <use x="187.78125" xlink:href="#DejaVuSans-101"/>
      <use x="249.304688" xlink:href="#DejaVuSans-115"/>
      <use x="301.404297" xlink:href="#DejaVuSans-115"/>
     </g>
    </g>
   </g>
   <g id="line2d_33">
    <path clip-path="url(#p5913f6b061)" d="M 73.832727 263.397461 
L 75.464157 258.786489 
L 77.095587 257.231346 
L 78.727017 266.749795 
L 80.358447 253.509892 
L 81.989877 263.81499 
L 83.621307 260.063281 
L 85.252736 261.842317 
L 86.884166 262.828653 
L 88.515596 263.379308 
L 90.147026 261.200896 
L 91.778456 266.949482 
L 93.409886 259.149558 
L 95.041316 260.613935 
L 96.672746 263.554791 
L 98.304175 260.6926 
L 101.567035 260.559475 
L 103.198465 264.129649 
L 104.829895 258.919615 
L 106.461325 252.783755 
L 108.092755 254.332848 
L 109.724185 263.397461 
L 111.355614 260.964901 
L 112.987044 251.349634 
L 114.618474 262.296153 
L 116.249904 255.700406 
L 117.881334 262.568454 
L 119.512764 261.75155 
L 121.144194 259.064842 
L 122.775624 261.285612 
L 124.407053 259.948309 
L 126.038483 262.677375 
L 127.669913 260.813623 
L 129.301343 262.471636 
L 130.932773 258.774387 
L 132.564203 264.093343 
L 134.195633 261.352174 
L 135.827063 260.353736 
L 137.458492 265.581924 
L 139.089922 268.583291 
L 140.721352 259.694161 
L 142.352782 254.883502 
L 143.984212 261.461095 
L 145.615642 261.545811 
L 147.247072 255.61569 
L 148.878502 259.803082 
L 150.509931 263.300643 
L 152.141361 256.723049 
L 153.772791 258.804643 
L 155.404221 262.048056 
L 157.035651 258.998279 
L 160.298511 254.871399 
L 161.929941 250.9079 
L 163.56137 260.595781 
L 165.1928 259.149558 
L 166.82423 263.264336 
L 168.45566 257.291857 
L 170.08709 252.075771 
L 171.71852 260.74706 
L 173.34995 257.642823 
L 174.98138 259.518678 
L 176.61281 263.23408 
L 178.244239 257.170834 
L 179.875669 260.287173 
L 181.507099 258.423421 
L 183.138529 259.930156 
L 184.769959 264.982861 
L 186.401389 266.943431 
L 188.032819 262.91337 
L 189.664249 257.546005 
L 191.295678 257.334215 
L 192.927108 261.206947 
L 194.558538 259.990667 
L 196.189968 259.028535 
L 197.821398 260.722855 
L 199.452828 257.94538 
L 201.084258 254.441768 
L 202.715688 266.985789 
L 204.347117 259.609445 
L 205.978547 264.765019 
L 207.609977 261.939135 
L 209.241407 265.702947 
L 210.872837 263.917859 
L 212.504267 254.151313 
L 214.135697 257.818306 
L 215.767127 265.648486 
L 217.398556 257.558107 
L 219.029986 263.542688 
L 220.661416 261.321919 
L 222.292846 263.209876 
L 223.924276 258.508137 
L 225.555706 256.226856 
L 227.187136 263.881553 
L 228.818566 260.383991 
L 230.449995 270.501504 
L 232.081425 262.901267 
L 233.712855 266.562209 
L 235.344285 270.749601 
L 236.975715 263.349052 
L 238.607145 263.228029 
L 240.238575 264.063087 
L 241.870005 253.231539 
L 243.501434 259.064842 
L 248.395724 260.541321 
L 250.027154 254.732223 
L 251.658584 262.150925 
L 253.290014 255.494667 
L 254.921444 261.739448 
L 256.552873 262.423227 
L 258.184303 253.056056 
L 259.815733 270.356276 
L 261.447163 263.960217 
L 263.078593 264.734764 
L 264.710023 267.36096 
L 266.341453 265.091781 
L 267.972883 259.694161 
L 269.604312 253.812449 
L 271.235742 260.547372 
L 272.867172 265.648486 
L 274.498602 262.217488 
L 276.130032 258.266091 
L 277.761462 266.773999 
L 279.392892 263.706069 
L 281.024322 261.025413 
L 282.655751 263.506382 
L 284.287181 257.667028 
L 285.918611 263.016239 
L 287.550041 263.984422 
L 289.181471 258.617057 
L 290.812901 263.240131 
L 292.444331 263.143313 
L 294.075761 263.23408 
L 295.70719 265.497208 
L 297.33862 256.9893 
L 298.97005 254.375206 
L 300.60148 260.16615 
L 302.23291 255.288928 
L 303.86434 253.945574 
L 305.49577 264.438258 
L 307.1272 256.838021 
L 308.75863 258.096659 
L 310.390059 265.793714 
L 312.021489 266.689283 
L 313.652919 261.884675 
L 315.284349 265.624282 
L 316.915779 266.961585 
L 318.547209 264.746866 
L 320.178639 261.793908 
L 321.810069 262.277999 
L 323.441498 266.265703 
L 325.072928 259.131405 
L 326.704358 259.349246 
L 328.335788 255.524923 
L 329.967218 265.327776 
L 331.598648 259.869644 
L 333.230078 266.713488 
L 334.861508 255.379696 
L 336.492937 260.474759 
L 338.124367 262.834705 
L 339.755797 263.772632 
L 341.387227 266.5138 
L 343.018657 258.611006 
L 344.650087 268.256529 
L 346.281517 262.471636 
L 347.912947 264.274877 
L 349.544376 255.167905 
L 351.175806 259.095098 
L 352.807236 262.701579 
L 354.438666 252.838215 
L 356.070096 255.537025 
L 357.701526 264.117547 
L 359.332956 257.872767 
L 360.964386 248.517698 
L 362.595815 257.618619 
L 364.227245 259.881746 
L 365.858675 268.425961 
L 367.490105 253.267846 
L 369.121535 262.550301 
L 370.752965 260.365838 
L 372.384395 263.724223 
L 374.015825 263.639507 
L 375.647254 263.681865 
L 377.278684 267.742182 
L 378.910114 261.920982 
L 380.541544 261.122231 
L 382.172974 264.474565 
L 383.804404 264.274877 
L 385.435834 248.457187 
L 387.067264 262.048056 
L 388.698693 253.007647 
L 390.330123 260.390043 
L 391.961553 263.324847 
L 393.592983 258.441574 
L 395.224413 261.684987 
L 396.855843 254.944013 
L 398.487273 257.364471 
L 398.487273 257.364471 
" style="fill:none;stroke:#0000ff;stroke-linecap:square;stroke-width:1.5;"/>
   </g>
   <g id="line2d_34">
    <path clip-path="url(#p5913f6b061)" d="M 73.832727 275.3875 
L 75.464157 268.618963 
L 77.095587 272.433248 
L 78.727017 277.554196 
L 80.358447 267.240304 
L 81.989877 276.960095 
L 83.621307 271.827419 
L 85.252736 268.659835 
L 86.884166 276.759953 
L 88.515596 271.358311 
L 90.147026 268.884779 
L 91.778456 273.709482 
L 93.409886 269.651046 
L 95.041316 273.515371 
L 96.672746 273.415289 
L 98.304175 272.842746 
L 99.935605 268.986359 
L 101.567035 270.920423 
L 103.198465 275.433748 
L 104.829895 271.247777 
L 106.461325 276.617424 
L 108.092755 271.726445 
L 109.724185 270.95588 
L 111.355614 269.408977 
L 112.987044 269.514392 
L 114.618474 274.843611 
L 116.249904 270.321883 
L 117.881334 271.345365 
L 119.512764 271.483595 
L 121.144194 271.342074 
L 124.407053 271.620154 
L 126.038483 276.457161 
L 127.669913 274.793649 
L 129.301343 274.807974 
L 130.932773 270.748645 
L 132.564203 272.058494 
L 134.195633 273.921255 
L 135.827063 273.592956 
L 137.458492 273.956259 
L 139.089922 280.941159 
L 140.721352 272.878413 
L 142.352782 273.780575 
L 143.984212 271.965476 
L 145.615642 270.964898 
L 147.247072 266.901909 
L 148.878502 276.347617 
L 150.509931 276.340261 
L 152.141361 271.592534 
L 153.772791 272.133777 
L 155.404221 276.800008 
L 157.035651 273.646271 
L 158.667081 272.786043 
L 160.298511 266.797237 
L 161.929941 269.068043 
L 163.56137 272.821025 
L 165.1928 270.024533 
L 166.82423 271.168445 
L 170.08709 264.401336 
L 171.71852 272.088712 
L 173.34995 272.423967 
L 174.98138 270.887543 
L 176.61281 270.020159 
L 178.244239 271.253356 
L 179.875669 271.136784 
L 181.507099 267.657403 
L 183.138529 269.020921 
L 184.769959 280.02727 
L 186.401389 278.505576 
L 188.032819 279.729915 
L 189.664249 266.478893 
L 191.295678 267.771489 
L 192.927108 271.395255 
L 194.558538 272.246125 
L 196.189968 271.278663 
L 197.821398 273.474331 
L 199.452828 269.611187 
L 201.084258 266.485192 
L 202.715688 273.918876 
L 205.978547 273.636657 
L 207.609977 270.898987 
L 209.241407 275.807761 
L 210.872837 274.907703 
L 212.504267 270.913589 
L 214.135697 272.530333 
L 215.767127 271.917939 
L 219.029986 272.301016 
L 220.661416 269.638513 
L 222.292846 278.910133 
L 223.924276 268.428499 
L 225.555706 268.780754 
L 227.187136 278.020557 
L 228.818566 275.315041 
L 230.449995 275.583816 
L 232.081425 269.58356 
L 233.712855 274.683058 
L 235.344285 278.676227 
L 236.975715 278.691984 
L 238.607145 276.182927 
L 240.238575 272.560332 
L 241.870005 295.488 
L 243.501434 276.908843 
L 245.132864 272.420177 
L 246.764294 276.749292 
L 248.395724 273.556689 
L 250.027154 271.037584 
L 251.658584 273.60563 
L 253.290014 269.467412 
L 254.921444 271.423917 
L 256.552873 270.368992 
L 258.184303 270.803815 
L 259.815733 276.73386 
L 261.447163 279.189708 
L 263.078593 277.285616 
L 264.710023 275.158016 
L 266.341453 272.76654 
L 267.972883 271.249571 
L 269.604312 269.485281 
L 271.235742 275.196984 
L 272.867172 273.612987 
L 274.498602 291.684072 
L 276.130032 268.308686 
L 277.761462 274.994215 
L 279.392892 273.33323 
L 281.024322 270.010218 
L 282.655751 275.430734 
L 284.287181 273.932452 
L 285.918611 272.08329 
L 287.550041 271.41342 
L 289.181471 271.462602 
L 290.812901 272.023216 
L 292.444331 271.726224 
L 294.075761 271.68495 
L 295.70719 272.615604 
L 298.97005 261.827786 
L 300.60148 271.609239 
L 302.23291 274.998929 
L 303.86434 265.075212 
L 305.49577 270.548822 
L 307.1272 269.771534 
L 308.75863 270.895651 
L 310.390059 274.670591 
L 312.021489 275.421065 
L 313.652919 270.525751 
L 315.284349 272.018781 
L 316.915779 274.40748 
L 318.547209 274.75067 
L 320.178639 270.643525 
L 321.810069 268.92418 
L 323.441498 273.336122 
L 325.072928 268.191038 
L 326.704358 270.670952 
L 328.335788 270.085382 
L 329.967218 274.42978 
L 331.598648 268.082299 
L 333.230078 274.185962 
L 334.861508 267.180976 
L 336.492937 273.12621 
L 338.124367 268.296883 
L 339.755797 274.76907 
L 341.387227 274.302304 
L 343.018657 272.364332 
L 344.650087 273.174062 
L 346.281517 272.583405 
L 347.912947 271.410761 
L 349.544376 270.559313 
L 351.175806 273.921802 
L 352.807236 272.586895 
L 354.438666 267.128064 
L 356.070096 268.623805 
L 357.701526 275.431139 
L 359.332956 271.079866 
L 360.964386 259.934542 
L 362.595815 268.58355 
L 364.227245 270.38789 
L 365.858675 279.419428 
L 367.490105 269.061257 
L 369.121535 268.016946 
L 370.752965 269.239454 
L 372.384395 271.078541 
L 374.015825 269.683336 
L 375.647254 270.113439 
L 377.278684 272.433922 
L 378.910114 272.169869 
L 380.541544 273.966117 
L 382.172974 276.558206 
L 383.804404 274.960414 
L 385.435834 270.417797 
L 387.067264 272.923581 
L 388.698693 271.032763 
L 390.330123 274.21176 
L 391.961553 271.143019 
L 393.592983 270.755274 
L 395.224413 269.196821 
L 396.855843 265.081113 
L 398.487273 271.269966 
L 398.487273 271.269966 
" style="fill:none;stroke:#008000;stroke-dasharray:9.6,2.4,1.5,2.4;stroke-dashoffset:0;stroke-width:1.5;"/>
   </g>
   <g id="line2d_35">
    <path clip-path="url(#p5913f6b061)" d="M 73.832727 251.407422 
L 75.464157 248.954016 
L 77.095587 242.029443 
L 78.727017 255.945393 
L 80.358447 239.77948 
L 81.989877 250.669885 
L 83.621307 248.299143 
L 85.252736 255.024799 
L 86.884166 248.897354 
L 88.515596 255.400304 
L 90.147026 253.517013 
L 91.778456 260.189483 
L 93.409886 248.64807 
L 95.041316 247.712499 
L 96.672746 253.694293 
L 98.304175 248.542453 
L 99.935605 252.253613 
L 101.567035 250.198526 
L 103.198465 252.825551 
L 104.829895 246.591452 
L 106.461325 228.950085 
L 108.092755 236.93925 
L 109.724185 255.839042 
L 111.355614 252.520826 
L 112.987044 233.184875 
L 114.618474 249.748695 
L 116.249904 241.078929 
L 117.881334 253.791544 
L 119.512764 252.019505 
L 121.144194 246.78761 
L 122.775624 251.08429 
L 124.407053 248.276464 
L 126.038483 248.897589 
L 127.669913 246.833596 
L 129.301343 250.135298 
L 130.932773 246.800129 
L 132.564203 256.128191 
L 134.195633 248.783094 
L 135.827063 247.114515 
L 137.458492 257.207589 
L 139.089922 256.225423 
L 140.721352 246.509909 
L 142.352782 235.986429 
L 143.984212 250.956714 
L 145.615642 252.126724 
L 147.247072 244.329472 
L 148.878502 243.258546 
L 150.509931 250.261025 
L 152.141361 241.853564 
L 153.772791 245.475509 
L 155.404221 247.296103 
L 157.035651 244.350288 
L 158.667081 241.144148 
L 160.298511 242.945562 
L 161.929941 232.747758 
L 163.56137 248.370538 
L 165.1928 248.274584 
L 166.82423 255.360226 
L 168.45566 246.919888 
L 170.08709 239.750206 
L 171.71852 249.405409 
L 173.34995 242.86168 
L 174.98138 248.149812 
L 176.61281 256.448001 
L 178.244239 243.088312 
L 179.875669 249.437562 
L 181.507099 249.189439 
L 183.138529 250.83939 
L 184.769959 249.938452 
L 186.401389 255.381287 
L 188.032819 246.096824 
L 189.664249 248.613117 
L 191.295678 246.896941 
L 192.927108 251.018639 
L 194.558538 247.73521 
L 196.189968 246.778408 
L 197.821398 247.97138 
L 199.452828 246.279574 
L 201.084258 242.398344 
L 202.715688 260.052702 
L 204.347117 245.396572 
L 205.978547 255.893382 
L 207.609977 252.979283 
L 209.241407 255.598133 
L 210.872837 252.928016 
L 212.504267 237.389038 
L 214.135697 243.10628 
L 215.767127 259.379034 
L 217.398556 243.03191 
L 219.029986 254.784361 
L 220.661416 253.005324 
L 222.292846 247.509618 
L 223.924276 248.587774 
L 225.555706 243.672958 
L 227.187136 249.742548 
L 228.818566 245.452942 
L 230.449995 265.419191 
L 232.081425 256.218974 
L 233.712855 258.44136 
L 235.344285 262.822974 
L 236.975715 248.006119 
L 238.607145 250.273131 
L 240.238575 255.565842 
L 241.870005 210.975079 
L 243.501434 241.220841 
L 245.132864 246.750304 
L 246.764294 243.679827 
L 248.395724 247.525954 
L 250.027154 238.426862 
L 251.658584 250.696221 
L 253.290014 241.521922 
L 254.921444 252.054978 
L 256.552873 254.477462 
L 258.184303 235.308297 
L 259.815733 263.978692 
L 261.447163 248.730727 
L 263.078593 252.183911 
L 264.710023 259.563905 
L 266.341453 257.417022 
L 267.972883 248.138751 
L 269.604312 238.139618 
L 271.235742 245.897761 
L 272.867172 257.683986 
L 274.498602 232.750904 
L 276.130032 248.223497 
L 277.761462 258.553784 
L 279.392892 254.078909 
L 281.024322 252.040607 
L 282.655751 251.582029 
L 284.287181 241.401604 
L 285.918611 253.949188 
L 287.550041 256.555424 
L 289.181471 245.771513 
L 290.812901 254.457047 
L 292.444331 254.560402 
L 294.075761 254.78321 
L 295.70719 258.378812 
L 297.33862 246.591521 
L 298.97005 246.922626 
L 300.60148 248.723061 
L 302.23291 235.578927 
L 303.86434 242.815937 
L 305.49577 258.327693 
L 307.1272 243.904509 
L 308.75863 245.297667 
L 310.390059 256.916837 
L 312.021489 257.957502 
L 313.652919 253.243599 
L 315.284349 259.229783 
L 316.915779 259.51569 
L 318.547209 254.743063 
L 320.178639 252.944291 
L 321.810069 255.631819 
L 323.441498 259.195284 
L 325.072928 250.071771 
L 326.704358 248.02754 
L 328.335788 240.964464 
L 329.967218 256.225771 
L 331.598648 251.656989 
L 333.230078 259.241014 
L 334.861508 243.578415 
L 336.492937 247.823307 
L 338.124367 257.372526 
L 339.755797 252.776194 
L 341.387227 258.725296 
L 343.018657 244.85768 
L 344.650087 263.338997 
L 346.281517 252.359867 
L 347.912947 257.138993 
L 349.544376 239.776498 
L 351.175806 244.268394 
L 352.807236 252.816264 
L 354.438666 238.548366 
L 356.070096 242.450245 
L 357.701526 252.803955 
L 359.332956 244.665668 
L 360.964386 237.100855 
L 362.595815 246.653687 
L 364.227245 249.375603 
L 365.858675 257.432495 
L 367.490105 237.474435 
L 369.121535 257.083656 
L 370.752965 251.492222 
L 372.384395 256.369905 
L 374.015825 257.595677 
L 375.647254 257.25029 
L 377.278684 263.050442 
L 378.910114 251.672095 
L 380.541544 248.278345 
L 382.172974 252.390923 
L 383.804404 253.58934 
L 385.435834 226.496578 
L 387.067264 251.172531 
L 388.698693 234.982531 
L 390.330123 246.568325 
L 391.961553 255.506676 
L 393.592983 246.127874 
L 395.224413 254.173153 
L 396.855843 244.806913 
L 398.487273 243.458975 
L 398.487273 243.458975 
" style="fill:none;stroke:#008000;stroke-dasharray:9.6,2.4,1.5,2.4;stroke-dashoffset:0;stroke-width:1.5;"/>
   </g>
   <g id="line2d_36">
    <path clip-path="url(#p5913f6b061)" d="M 73.832727 229.293215 
L 75.464157 228.204009 
L 77.095587 195.890901 
L 78.727017 215.859676 
L 80.358447 206.419891 
L 81.989877 186.088048 
L 83.621307 226.025597 
L 85.252736 244.179028 
L 86.884166 213.318195 
L 88.515596 221.668774 
L 90.147026 247.083577 
L 91.778456 251.80347 
L 93.409886 230.019352 
L 95.041316 193.349421 
L 96.672746 203.515342 
L 98.304175 198.79545 
L 99.935605 213.681264 
L 101.567035 222.031842 
L 103.198465 231.471627 
L 104.829895 219.490362 
L 106.461325 162.125519 
L 108.092755 160.673245 
L 109.724185 227.114803 
L 111.355614 230.019352 
L 112.987044 176.285195 
L 114.618474 192.986352 
L 116.249904 193.712489 
L 117.881334 241.274479 
L 119.512764 229.656283 
L 122.775624 202.789205 
L 124.407053 209.687509 
L 126.038483 200.973862 
L 127.669913 218.401156 
L 129.301343 186.451117 
L 130.932773 194.075558 
L 132.564203 241.637548 
L 134.195633 206.419891 
L 135.827063 193.349421 
L 137.458492 223.484117 
L 139.089922 213.681264 
L 140.721352 209.687509 
L 142.352782 182.820431 
L 143.984212 215.496607 
L 145.615642 225.662529 
L 147.247072 218.038087 
L 148.878502 172.291441 
L 150.509931 191.534078 
L 152.141361 201.699999 
L 153.772791 216.585813 
L 155.404221 190.80794 
L 157.035651 201.699999 
L 158.667081 187.177254 
L 160.298511 190.081803 
L 161.929941 178.826676 
L 163.56137 215.133538 
L 165.1928 197.706244 
L 166.82423 242.363685 
L 168.45566 218.401156 
L 170.08709 212.228989 
L 171.71852 202.789205 
L 173.34995 213.681264 
L 174.98138 211.139783 
L 176.61281 236.191519 
L 178.244239 194.438627 
L 179.875669 239.822205 
L 181.507099 216.222744 
L 183.138529 210.050578 
L 184.769959 192.623284 
L 186.401389 202.789205 
L 188.032819 195.890901 
L 189.664249 234.739244 
L 191.295678 215.133538 
L 192.927108 215.859676 
L 194.558538 218.038087 
L 196.189968 200.610793 
L 197.821398 219.127293 
L 199.452828 211.865921 
L 201.084258 232.197764 
L 202.715688 248.535852 
L 204.347117 209.32444 
L 205.978547 233.28697 
L 207.609977 220.942636 
L 209.241407 222.75798 
L 210.872837 212.955127 
L 212.504267 183.909637 
L 214.135697 189.355666 
L 215.767127 244.179028 
L 217.398556 181.368156 
L 219.029986 236.191519 
L 220.661416 233.650038 
L 222.292846 175.922127 
L 223.924276 220.942636 
L 225.555706 218.764225 
L 227.187136 195.890901 
L 228.818566 199.884656 
L 230.449995 255.797224 
L 232.081425 250.714264 
L 233.712855 231.471627 
L 235.344285 240.548342 
L 236.975715 209.32444 
L 238.607145 222.75798 
L 240.238575 248.172783 
L 241.870005 53.568 
L 243.501434 192.260215 
L 245.132864 200.973862 
L 246.764294 185.361911 
L 248.395724 210.776715 
L 250.027154 192.623284 
L 251.658584 234.376176 
L 253.290014 227.84094 
L 254.921444 228.204009 
L 256.552873 238.36993 
L 258.184303 204.604548 
L 259.815733 251.077332 
L 261.447163 172.291441 
L 263.078593 215.133538 
L 264.710023 248.172783 
L 266.341453 239.096068 
L 267.972883 223.847185 
L 269.604312 183.546568 
L 271.235742 193.712489 
L 272.867172 240.185274 
L 274.498602 56.10948 
L 276.130032 235.82845 
L 277.761462 248.172783 
L 279.392892 219.490362 
L 281.024322 232.923901 
L 282.655751 202.426136 
L 284.287181 176.285195 
L 285.918611 231.834695 
L 287.550041 243.089823 
L 289.181471 195.527833 
L 290.812901 227.114803 
L 292.444331 215.133538 
L 294.075761 229.293215 
L 295.70719 246.35744 
L 297.33862 221.305705 
L 298.97005 234.739244 
L 300.60148 201.699999 
L 302.23291 117.468078 
L 303.86434 228.204009 
L 305.49577 251.440401 
L 307.1272 203.515342 
L 308.75863 193.349421 
L 310.390059 231.834695 
L 312.021489 237.643793 
L 313.652919 218.401156 
L 315.284349 253.618813 
L 316.915779 250.351195 
L 318.547209 226.751734 
L 320.178639 240.548342 
L 321.810069 245.631303 
L 323.441498 248.898921 
L 325.072928 224.936391 
L 326.704358 231.108558 
L 328.335788 219.853431 
L 329.967218 230.382421 
L 333.230078 242.726754 
L 334.861508 212.228989 
L 336.492937 238.36993 
L 338.124367 248.898921 
L 339.755797 208.598303 
L 341.387227 230.745489 
L 343.018657 215.859676 
L 344.650087 258.338705 
L 346.281517 210.776715 
L 347.912947 230.745489 
L 349.544376 195.164764 
L 351.175806 209.32444 
L 352.807236 227.84094 
L 354.438666 224.573323 
L 356.070096 210.050578 
L 357.701526 218.038087 
L 359.332956 234.013107 
L 360.964386 230.382421 
L 362.595815 211.502852 
L 364.227245 208.961372 
L 365.858675 195.164764 
L 367.490105 229.293215 
L 369.121535 252.166538 
L 370.752965 232.197764 
L 372.384395 244.905166 
L 374.015825 250.714264 
L 375.647254 239.822205 
L 377.278684 257.975636 
L 378.910114 223.847185 
L 380.541544 214.77047 
L 382.172974 194.438627 
L 383.804404 230.382421 
L 385.435834 167.571548 
L 387.067264 219.490362 
L 388.698693 191.534078 
L 390.330123 196.25397 
L 391.961553 235.82845 
L 393.592983 206.78296 
L 395.224413 232.923901 
L 398.487273 193.712489 
L 398.487273 193.712489 
" style="fill:none;stroke:#ff0000;stroke-linecap:square;stroke-width:1.5;"/>
   </g>
   <g id="patch_3">
    <path d="M 57.6 307.584 
L 57.6 41.472 
" style="fill:none;stroke:#000000;stroke-linecap:square;stroke-linejoin:miter;stroke-width:0.8;"/>
   </g>
   <g id="patch_4">
    <path d="M 414.72 307.584 
L 414.72 41.472 
" style="fill:none;stroke:#000000;stroke-linecap:square;stroke-linejoin:miter;stroke-width:0.8;"/>
   </g>
   <g id="patch_5">
    <path d="M 57.6 307.584 
L 414.72 307.584 
" style="fill:none;stroke:#000000;stroke-linecap:square;stroke-linejoin:miter;stroke-width:0.8;"/>
   </g>
   <g id="patch_6">
    <path d="M 57.6 41.472 
L 414.72 41.472 
" style="fill:none;stroke:#000000;stroke-linecap:square;stroke-linejoin:miter;stroke-width:0.8;"/>
   </g>
   <g id="text_19">
    <!-- Population's average and best fitness -->
    <defs>
     <path d="M 19.671875 64.796875 
L 19.671875 37.40625 
L 32.078125 37.40625 
Q 38.96875 37.40625 42.71875 40.96875 
Q 46.484375 44.53125 46.484375 51.125 
Q 46.484375 57.671875 42.71875 61.234375 
Q 38.96875 64.796875 32.078125 64.796875 
z
M 9.8125 72.90625 
L 32.078125 72.90625 
Q 44.34375 72.90625 50.609375 67.359375 
Q 56.890625 61.8125 56.890625 51.125 
Q 56.890625 40.328125 50.609375 34.8125 
Q 44.34375 29.296875 32.078125 29.296875 
L 19.671875 29.296875 
L 19.671875 0 
L 9.8125 0 
z
" id="DejaVuSans-80"/>
     <path d="M 18.109375 8.203125 
L 18.109375 -20.796875 
L 9.078125 -20.796875 
L 9.078125 54.6875 
L 18.109375 54.6875 
L 18.109375 46.390625 
Q 20.953125 51.265625 25.265625 53.625 
Q 29.59375 56 35.59375 56 
Q 45.5625 56 51.78125 48.09375 
Q 58.015625 40.1875 58.015625 27.296875 
Q 58.015625 14.40625 51.78125 6.484375 
Q 45.5625 -1.421875 35.59375 -1.421875 
Q 29.59375 -1.421875 25.265625 0.953125 
Q 20.953125 3.328125 18.109375 8.203125 
z
M 48.6875 27.296875 
Q 48.6875 37.203125 44.609375 42.84375 
Q 40.53125 48.484375 33.40625 48.484375 
Q 26.265625 48.484375 22.1875 42.84375 
Q 18.109375 37.203125 18.109375 27.296875 
Q 18.109375 17.390625 22.1875 11.75 
Q 26.265625 6.109375 33.40625 6.109375 
Q 40.53125 6.109375 44.609375 11.75 
Q 48.6875 17.390625 48.6875 27.296875 
z
" id="DejaVuSans-112"/>
     <path d="M 8.5 21.578125 
L 8.5 54.6875 
L 17.484375 54.6875 
L 17.484375 21.921875 
Q 17.484375 14.15625 20.5 10.265625 
Q 23.53125 6.390625 29.59375 6.390625 
Q 36.859375 6.390625 41.078125 11.03125 
Q 45.3125 15.671875 45.3125 23.6875 
L 45.3125 54.6875 
L 54.296875 54.6875 
L 54.296875 0 
L 45.3125 0 
L 45.3125 8.40625 
Q 42.046875 3.421875 37.71875 1 
Q 33.40625 -1.421875 27.6875 -1.421875 
Q 18.265625 -1.421875 13.375 4.4375 
Q 8.5 10.296875 8.5 21.578125 
z
M 31.109375 56 
z
" id="DejaVuSans-117"/>
     <path d="M 9.421875 75.984375 
L 18.40625 75.984375 
L 18.40625 0 
L 9.421875 0 
z
" id="DejaVuSans-108"/>
     <path d="M 17.921875 72.90625 
L 17.921875 45.796875 
L 9.625 45.796875 
L 9.625 72.90625 
z
" id="DejaVuSans-39"/>
     <path id="DejaVuSans-32"/>
     <path d="M 2.984375 54.6875 
L 12.5 54.6875 
L 29.59375 8.796875 
L 46.6875 54.6875 
L 56.203125 54.6875 
L 35.6875 0 
L 23.484375 0 
z
" id="DejaVuSans-118"/>
     <path d="M 45.40625 27.984375 
Q 45.40625 37.75 41.375 43.109375 
Q 37.359375 48.484375 30.078125 48.484375 
Q 22.859375 48.484375 18.828125 43.109375 
Q 14.796875 37.75 14.796875 27.984375 
Q 14.796875 18.265625 18.828125 12.890625 
Q 22.859375 7.515625 30.078125 7.515625 
Q 37.359375 7.515625 41.375 12.890625 
Q 45.40625 18.265625 45.40625 27.984375 
z
M 54.390625 6.78125 
Q 54.390625 -7.171875 48.1875 -13.984375 
Q 42 -20.796875 29.203125 -20.796875 
Q 24.46875 -20.796875 20.265625 -20.09375 
Q 16.0625 -19.390625 12.109375 -17.921875 
L 12.109375 -9.1875 
Q 16.0625 -11.328125 19.921875 -12.34375 
Q 23.78125 -13.375 27.78125 -13.375 
Q 36.625 -13.375 41.015625 -8.765625 
Q 45.40625 -4.15625 45.40625 5.171875 
L 45.40625 9.625 
Q 42.625 4.78125 38.28125 2.390625 
Q 33.9375 0 27.875 0 
Q 17.828125 0 11.671875 7.65625 
Q 5.515625 15.328125 5.515625 27.984375 
Q 5.515625 40.671875 11.671875 48.328125 
Q 17.828125 56 27.875 56 
Q 33.9375 56 38.28125 53.609375 
Q 42.625 51.21875 45.40625 46.390625 
L 45.40625 54.6875 
L 54.390625 54.6875 
z
" id="DejaVuSans-103"/>
     <path d="M 45.40625 46.390625 
L 45.40625 75.984375 
L 54.390625 75.984375 
L 54.390625 0 
L 45.40625 0 
L 45.40625 8.203125 
Q 42.578125 3.328125 38.25 0.953125 
Q 33.9375 -1.421875 27.875 -1.421875 
Q 17.96875 -1.421875 11.734375 6.484375 
Q 5.515625 14.40625 5.515625 27.296875 
Q 5.515625 40.1875 11.734375 48.09375 
Q 17.96875 56 27.875 56 
Q 33.9375 56 38.25 53.625 
Q 42.578125 51.265625 45.40625 46.390625 
z
M 14.796875 27.296875 
Q 14.796875 17.390625 18.875 11.75 
Q 22.953125 6.109375 30.078125 6.109375 
Q 37.203125 6.109375 41.296875 11.75 
Q 45.40625 17.390625 45.40625 27.296875 
Q 45.40625 37.203125 41.296875 42.84375 
Q 37.203125 48.484375 30.078125 48.484375 
Q 22.953125 48.484375 18.875 42.84375 
Q 14.796875 37.203125 14.796875 27.296875 
z
" id="DejaVuSans-100"/>
     <path d="M 48.6875 27.296875 
Q 48.6875 37.203125 44.609375 42.84375 
Q 40.53125 48.484375 33.40625 48.484375 
Q 26.265625 48.484375 22.1875 42.84375 
Q 18.109375 37.203125 18.109375 27.296875 
Q 18.109375 17.390625 22.1875 11.75 
Q 26.265625 6.109375 33.40625 6.109375 
Q 40.53125 6.109375 44.609375 11.75 
Q 48.6875 17.390625 48.6875 27.296875 
z
M 18.109375 46.390625 
Q 20.953125 51.265625 25.265625 53.625 
Q 29.59375 56 35.59375 56 
Q 45.5625 56 51.78125 48.09375 
Q 58.015625 40.1875 58.015625 27.296875 
Q 58.015625 14.40625 51.78125 6.484375 
Q 45.5625 -1.421875 35.59375 -1.421875 
Q 29.59375 -1.421875 25.265625 0.953125 
Q 20.953125 3.328125 18.109375 8.203125 
L 18.109375 0 
L 9.078125 0 
L 9.078125 75.984375 
L 18.109375 75.984375 
z
" id="DejaVuSans-98"/>
     <path d="M 37.109375 75.984375 
L 37.109375 68.5 
L 28.515625 68.5 
Q 23.6875 68.5 21.796875 66.546875 
Q 19.921875 64.59375 19.921875 59.515625 
L 19.921875 54.6875 
L 34.71875 54.6875 
L 34.71875 47.703125 
L 19.921875 47.703125 
L 19.921875 0 
L 10.890625 0 
L 10.890625 47.703125 
L 2.296875 47.703125 
L 2.296875 54.6875 
L 10.890625 54.6875 
L 10.890625 58.5 
Q 10.890625 67.625 15.140625 71.796875 
Q 19.390625 75.984375 28.609375 75.984375 
z
" id="DejaVuSans-102"/>
    </defs>
    <g transform="translate(123.315 35.472)scale(0.12 -0.12)">
     <use xlink:href="#DejaVuSans-80"/>
     <use x="60.255859" xlink:href="#DejaVuSans-111"/>
     <use x="121.4375" xlink:href="#DejaVuSans-112"/>
     <use x="184.914062" xlink:href="#DejaVuSans-117"/>
     <use x="248.292969" xlink:href="#DejaVuSans-108"/>
     <use x="276.076172" xlink:href="#DejaVuSans-97"/>
     <use x="337.355469" xlink:href="#DejaVuSans-116"/>
     <use x="376.564453" xlink:href="#DejaVuSans-105"/>
     <use x="404.347656" xlink:href="#DejaVuSans-111"/>
     <use x="465.529297" xlink:href="#DejaVuSans-110"/>
     <use x="528.908203" xlink:href="#DejaVuSans-39"/>
     <use x="556.398438" xlink:href="#DejaVuSans-115"/>
     <use x="608.498047" xlink:href="#DejaVuSans-32"/>
     <use x="640.285156" xlink:href="#DejaVuSans-97"/>
     <use x="701.564453" xlink:href="#DejaVuSans-118"/>
     <use x="760.744141" xlink:href="#DejaVuSans-101"/>
     <use x="822.267578" xlink:href="#DejaVuSans-114"/>
     <use x="863.380859" xlink:href="#DejaVuSans-97"/>
     <use x="924.660156" xlink:href="#DejaVuSans-103"/>
     <use x="988.136719" xlink:href="#DejaVuSans-101"/>
     <use x="1049.660156" xlink:href="#DejaVuSans-32"/>
     <use x="1081.447266" xlink:href="#DejaVuSans-97"/>
     <use x="1142.726562" xlink:href="#DejaVuSans-110"/>
     <use x="1206.105469" xlink:href="#DejaVuSans-100"/>
     <use x="1269.582031" xlink:href="#DejaVuSans-32"/>
     <use x="1301.369141" xlink:href="#DejaVuSans-98"/>
     <use x="1364.845703" xlink:href="#DejaVuSans-101"/>
     <use x="1426.369141" xlink:href="#DejaVuSans-115"/>
     <use x="1478.46875" xlink:href="#DejaVuSans-116"/>
     <use x="1517.677734" xlink:href="#DejaVuSans-32"/>
     <use x="1549.464844" xlink:href="#DejaVuSans-102"/>
     <use x="1584.669922" xlink:href="#DejaVuSans-105"/>
     <use x="1612.453125" xlink:href="#DejaVuSans-116"/>
     <use x="1651.662109" xlink:href="#DejaVuSans-110"/>
     <use x="1715.041016" xlink:href="#DejaVuSans-101"/>
     <use x="1776.564453" xlink:href="#DejaVuSans-115"/>
     <use x="1828.664062" xlink:href="#DejaVuSans-115"/>
    </g>
   </g>
   <g id="legend_1">
    <g id="patch_7">
     <path d="M 334.779375 108.1845 
L 407.72 108.1845 
Q 409.72 108.1845 409.72 106.1845 
L 409.72 48.472 
Q 409.72 46.472 407.72 46.472 
L 334.779375 46.472 
Q 332.779375 46.472 332.779375 48.472 
L 332.779375 106.1845 
Q 332.779375 108.1845 334.779375 108.1845 
z
" style="fill:#ffffff;opacity:0.8;stroke:#cccccc;stroke-linejoin:miter;"/>
    </g>
    <g id="line2d_37">
     <path d="M 336.779375 54.570438 
L 356.779375 54.570438 
" style="fill:none;stroke:#0000ff;stroke-linecap:square;stroke-width:1.5;"/>
    </g>
    <g id="line2d_38"/>
    <g id="text_20">
     <!-- average -->
     <g transform="translate(364.779375 58.070438)scale(0.1 -0.1)">
      <use xlink:href="#DejaVuSans-97"/>
      <use x="61.279297" xlink:href="#DejaVuSans-118"/>
      <use x="120.458984" xlink:href="#DejaVuSans-101"/>
      <use x="181.982422" xlink:href="#DejaVuSans-114"/>
      <use x="223.095703" xlink:href="#DejaVuSans-97"/>
      <use x="284.375" xlink:href="#DejaVuSans-103"/>
      <use x="347.851562" xlink:href="#DejaVuSans-101"/>
     </g>
    </g>
    <g id="line2d_39">
     <path d="M 336.779375 69.248563 
L 356.779375 69.248563 
" style="fill:none;stroke:#008000;stroke-dasharray:9.6,2.4,1.5,2.4;stroke-dashoffset:0;stroke-width:1.5;"/>
    </g>
    <g id="line2d_40"/>
    <g id="text_21">
     <!-- -1 sd -->
     <defs>
      <path d="M 4.890625 31.390625 
L 31.203125 31.390625 
L 31.203125 23.390625 
L 4.890625 23.390625 
z
" id="DejaVuSans-45"/>
     </defs>
     <g transform="translate(364.779375 72.748563)scale(0.1 -0.1)">
      <use xlink:href="#DejaVuSans-45"/>
      <use x="36.083984" xlink:href="#DejaVuSans-49"/>
      <use x="99.707031" xlink:href="#DejaVuSans-32"/>
      <use x="131.494141" xlink:href="#DejaVuSans-115"/>
      <use x="183.59375" xlink:href="#DejaVuSans-100"/>
     </g>
    </g>
    <g id="line2d_41">
     <path d="M 336.779375 83.926688 
L 356.779375 83.926688 
" style="fill:none;stroke:#008000;stroke-dasharray:9.6,2.4,1.5,2.4;stroke-dashoffset:0;stroke-width:1.5;"/>
    </g>
    <g id="line2d_42"/>
    <g id="text_22">
     <!-- +1 sd -->
     <defs>
      <path d="M 46 62.703125 
L 46 35.5 
L 73.1875 35.5 
L 73.1875 27.203125 
L 46 27.203125 
L 46 0 
L 37.796875 0 
L 37.796875 27.203125 
L 10.59375 27.203125 
L 10.59375 35.5 
L 37.796875 35.5 
L 37.796875 62.703125 
z
" id="DejaVuSans-43"/>
     </defs>
     <g transform="translate(364.779375 87.426688)scale(0.1 -0.1)">
      <use xlink:href="#DejaVuSans-43"/>
      <use x="83.789062" xlink:href="#DejaVuSans-49"/>
      <use x="147.412109" xlink:href="#DejaVuSans-32"/>
      <use x="179.199219" xlink:href="#DejaVuSans-115"/>
      <use x="231.298828" xlink:href="#DejaVuSans-100"/>
     </g>
    </g>
    <g id="line2d_43">
     <path d="M 336.779375 98.604813 
L 356.779375 98.604813 
" style="fill:none;stroke:#ff0000;stroke-linecap:square;stroke-width:1.5;"/>
    </g>
    <g id="line2d_44"/>
    <g id="text_23">
     <!-- best -->
     <g transform="translate(364.779375 102.104813)scale(0.1 -0.1)">
      <use xlink:href="#DejaVuSans-98"/>
      <use x="63.476562" xlink:href="#DejaVuSans-101"/>
      <use x="125" xlink:href="#DejaVuSans-115"/>
      <use x="177.099609" xlink:href="#DejaVuSans-116"/>
     </g>
    </g>
   </g>
  </g>
 </g>
 <defs>
  <clipPath id="p5913f6b061">
   <rect height="266.112" width="357.12" x="57.6" y="41.472"/>
  </clipPath>
 </defs>
</svg>
