<?xml version="1.0" encoding="UTF-8" standalone="no"?>
<!DOCTYPE svg PUBLIC "-//W3C//DTD SVG 1.1//EN"
 "http://www.w3.org/Graphics/SVG/1.1/DTD/svg11.dtd">
<!-- Generated by graphviz version 2.38.0 (20140413.2041)
 -->
<!-- Title: %3 Pages: 1 -->
<svg width="748pt" height="92pt"
 viewBox="0.00 0.00 748.00 91.70" xmlns="http://www.w3.org/2000/svg" xmlns:xlink="http://www.w3.org/1999/xlink">
<g id="graph0" class="graph" transform="scale(1 1) rotate(0) translate(4 87.6985)">
<title>%3</title>
<polygon fill="white" stroke="none" points="-4,4 -4,-87.6985 744,-87.6985 744,4 -4,4"/>
<!-- &#45;1 -->
<g id="node1" class="node"><title>&#45;1</title>
<polygon fill="lightgray" stroke="black" points="197.5,-83.6985 173.5,-83.6985 173.5,-65.6985 197.5,-65.6985 197.5,-83.6985"/>
<text text-anchor="middle" x="185.5" y="-72.4985" font-family="Times New Roman,serif" font-size="9.00">&#45;1</text>
</g>
<!-- 1 -->
<g id="node19" class="node"><title>1</title>
<ellipse fill="lightblue" stroke="black" cx="143.5" cy="-14.8492" rx="14.7" ry="14.7"/>
<text text-anchor="middle" x="143.5" y="-12.6492" font-family="Times New Roman,serif" font-size="9.00">1</text>
</g>
<!-- &#45;1&#45;&gt;1 -->
<g id="edge18" class="edge"><title>&#45;1&#45;&gt;1</title>
<path fill="none" stroke="red" stroke-width="0.17078" stroke-dasharray="1,5" d="M179.66,-65.6548C174.025,-57.8934 165.272,-45.8369 157.789,-35.5302"/>
<polygon fill="red" stroke="red" stroke-width="0.17078" points="160.606,-33.4527 151.898,-27.4169 154.941,-37.5653 160.606,-33.4527"/>
</g>
<!-- 3 -->
<g id="node21" class="node"><title>3</title>
<ellipse fill="lightblue" stroke="black" cx="276.5" cy="-14.8492" rx="14.7" ry="14.7"/>
<text text-anchor="middle" x="276.5" y="-12.6492" font-family="Times New Roman,serif" font-size="9.00">3</text>
</g>
<!-- &#45;1&#45;&gt;3 -->
<g id="edge25" class="edge"><title>&#45;1&#45;&gt;3</title>
<path fill="none" stroke="red" stroke-width="0.35436" stroke-dasharray="1,5" d="M197.773,-65.8967C212.645,-56.4421 237.932,-40.3671 255.83,-28.9892"/>
<polygon fill="red" stroke="red" stroke-width="0.35436" points="257.86,-31.846 264.422,-23.5274 254.105,-25.9386 257.86,-31.846"/>
</g>
<!-- 4 -->
<g id="node22" class="node"><title>4</title>
<ellipse fill="lightblue" stroke="black" cx="372.5" cy="-14.8492" rx="14.7" ry="14.7"/>
<text text-anchor="middle" x="372.5" y="-12.6492" font-family="Times New Roman,serif" font-size="9.00">4</text>
</g>
<!-- &#45;1&#45;&gt;4 -->
<g id="edge19" class="edge"><title>&#45;1&#45;&gt;4</title>
<path fill="none" stroke="green" stroke-width="1.46067" d="M197.853,-68.7204C200.673,-67.6602 203.673,-66.5921 206.5,-65.6985 268.581,-46.0766 288.179,-54.2005 348.5,-29.6985 349.358,-29.35 350.223,-28.9756 351.088,-28.5812"/>
<polygon fill="green" stroke="green" stroke-width="1.46067" points="352.885,-31.591 360.125,-23.8558 349.642,-25.3877 352.885,-31.591"/>
</g>
<!-- &#45;2 -->
<g id="node2" class="node"><title>&#45;2</title>
<polygon fill="lightgray" stroke="black" points="113.5,-83.6985 89.5,-83.6985 89.5,-65.6985 113.5,-65.6985 113.5,-83.6985"/>
<text text-anchor="middle" x="101.5" y="-72.4985" font-family="Times New Roman,serif" font-size="9.00">&#45;2</text>
</g>
<!-- &#45;2&#45;&gt;1 -->
<g id="edge28" class="edge"><title>&#45;2&#45;&gt;1</title>
<path fill="none" stroke="green" stroke-width="0.782437" stroke-dasharray="1,5" d="M107.34,-65.6548C112.975,-57.8934 121.728,-45.8369 129.211,-35.5302"/>
<polygon fill="green" stroke="green" stroke-width="0.782437" points="132.059,-37.5653 135.102,-27.4169 126.394,-33.4527 132.059,-37.5653"/>
</g>
<!-- &#45;2&#45;&gt;3 -->
<g id="edge2" class="edge"><title>&#45;2&#45;&gt;3</title>
<path fill="none" stroke="green" stroke-width="0.259405" d="M113.898,-68.8555C116.716,-67.7883 119.703,-66.6832 122.5,-65.6985 128.823,-63.4724 211.29,-36.8661 252.869,-23.4636"/>
<polygon fill="green" stroke="green" stroke-width="0.259405" points="254.043,-26.7625 262.488,-20.3636 251.896,-20.1 254.043,-26.7625"/>
</g>
<!-- &#45;3 -->
<g id="node3" class="node"><title>&#45;3</title>
<polygon fill="lightgray" stroke="black" points="555.5,-83.6985 531.5,-83.6985 531.5,-65.6985 555.5,-65.6985 555.5,-83.6985"/>
<text text-anchor="middle" x="543.5" y="-72.4985" font-family="Times New Roman,serif" font-size="9.00">&#45;3</text>
</g>
<!-- 0 -->
<g id="node18" class="node"><title>0</title>
<ellipse fill="lightblue" stroke="black" cx="546.5" cy="-14.8492" rx="14.7" ry="14.7"/>
<text text-anchor="middle" x="546.5" y="-12.6492" font-family="Times New Roman,serif" font-size="9.00">0</text>
</g>
<!-- &#45;3&#45;&gt;0 -->
<g id="edge37" class="edge"><title>&#45;3&#45;&gt;0</title>
<path fill="none" stroke="green" stroke-width="0.422783" d="M543.917,-65.6548C544.26,-59.0498 544.763,-49.3344 545.235,-40.2339"/>
<polygon fill="green" stroke="green" stroke-width="0.422783" points="548.741,-40.2242 545.763,-30.0563 541.75,-39.8616 548.741,-40.2242"/>
</g>
<!-- 2 -->
<g id="node20" class="node"><title>2</title>
<ellipse fill="lightblue" stroke="black" cx="324.5" cy="-14.8492" rx="14.7" ry="14.7"/>
<text text-anchor="middle" x="324.5" y="-12.6492" font-family="Times New Roman,serif" font-size="9.00">2</text>
</g>
<!-- &#45;3&#45;&gt;2 -->
<g id="edge6" class="edge"><title>&#45;3&#45;&gt;2</title>
<path fill="none" stroke="green" stroke-width="0.25425" d="M531.175,-68.6273C528.353,-67.5719 525.346,-66.5293 522.5,-65.6985 446.692,-43.5711 422.306,-57.791 348.5,-29.6985 347.635,-29.3691 346.764,-29.0109 345.893,-28.6301"/>
<polygon fill="green" stroke="green" stroke-width="0.25425" points="347.324,-25.4303 336.83,-23.9685 344.122,-31.6551 347.324,-25.4303"/>
</g>
<!-- 5 -->
<g id="node23" class="node"><title>5</title>
<ellipse fill="lightblue" stroke="black" cx="498.5" cy="-14.8492" rx="14.7" ry="14.7"/>
<text text-anchor="middle" x="498.5" y="-12.6492" font-family="Times New Roman,serif" font-size="9.00">5</text>
</g>
<!-- &#45;3&#45;&gt;5 -->
<g id="edge20" class="edge"><title>&#45;3&#45;&gt;5</title>
<path fill="none" stroke="red" stroke-width="0.2691" d="M537.243,-65.6548C531.13,-57.7964 521.592,-45.5348 513.51,-35.1446"/>
<polygon fill="red" stroke="red" stroke-width="0.2691" points="516.072,-32.7387 507.17,-26.9946 510.547,-37.0367 516.072,-32.7387"/>
</g>
<!-- &#45;4 -->
<g id="node4" class="node"><title>&#45;4</title>
<polygon fill="lightgray" stroke="black" points="155.5,-83.6985 131.5,-83.6985 131.5,-65.6985 155.5,-65.6985 155.5,-83.6985"/>
<text text-anchor="middle" x="143.5" y="-72.4985" font-family="Times New Roman,serif" font-size="9.00">&#45;4</text>
</g>
<!-- &#45;4&#45;&gt;1 -->
<g id="edge21" class="edge"><title>&#45;4&#45;&gt;1</title>
<path fill="none" stroke="red" stroke-width="0.341467" d="M143.5,-65.6548C143.5,-59.0498 143.5,-49.3344 143.5,-40.2339"/>
<polygon fill="red" stroke="red" stroke-width="0.341467" points="147,-40.0563 143.5,-30.0563 140,-40.0564 147,-40.0563"/>
</g>
<!-- &#45;4&#45;&gt;2 -->
<g id="edge10" class="edge"><title>&#45;4&#45;&gt;2</title>
<path fill="none" stroke="green" stroke-width="0.312099" d="M155.86,-68.7424C158.68,-67.681 161.677,-66.6069 164.5,-65.6985 224.02,-46.5425 242.694,-53.5323 300.5,-29.6985 301.356,-29.3455 302.219,-28.9673 303.083,-28.5696"/>
<polygon fill="green" stroke="green" stroke-width="0.312099" points="304.887,-31.5759 312.115,-23.8293 301.634,-25.3778 304.887,-31.5759"/>
</g>
<!-- 6 -->
<g id="node24" class="node"><title>6</title>
<ellipse fill="lightblue" stroke="black" cx="209.5" cy="-14.8492" rx="14.7" ry="14.7"/>
<text text-anchor="middle" x="209.5" y="-12.6492" font-family="Times New Roman,serif" font-size="9.00">6</text>
</g>
<!-- &#45;4&#45;&gt;6 -->
<g id="edge30" class="edge"><title>&#45;4&#45;&gt;6</title>
<path fill="none" stroke="green" stroke-width="0.16473" d="M152.677,-65.6548C162.556,-56.996 178.534,-42.9914 191.034,-32.0346"/>
<polygon fill="green" stroke="green" stroke-width="0.16473" points="193.434,-34.5849 198.648,-25.3614 188.82,-29.3208 193.434,-34.5849"/>
</g>
<!-- &#45;5 -->
<g id="node5" class="node"><title>&#45;5</title>
<polygon fill="lightgray" stroke="black" points="513.5,-83.6985 489.5,-83.6985 489.5,-65.6985 513.5,-65.6985 513.5,-83.6985"/>
<text text-anchor="middle" x="501.5" y="-72.4985" font-family="Times New Roman,serif" font-size="9.00">&#45;5</text>
</g>
<!-- &#45;5&#45;&gt;3 -->
<g id="edge17" class="edge"><title>&#45;5&#45;&gt;3</title>
<path fill="none" stroke="red" stroke-width="0.383316" stroke-dasharray="1,5" d="M489.179,-68.6133C486.357,-67.5586 483.349,-66.5199 480.5,-65.6985 402.108,-43.0983 376.843,-58.4679 300.5,-29.6985 299.633,-29.3719 298.762,-29.0162 297.89,-28.6375"/>
<polygon fill="red" stroke="red" stroke-width="0.383316" points="299.319,-25.4368 288.824,-23.9854 296.123,-31.6648 299.319,-25.4368"/>
</g>
<!-- &#45;5&#45;&gt;4 -->
<g id="edge32" class="edge"><title>&#45;5&#45;&gt;4</title>
<path fill="none" stroke="green" stroke-width="0.267685" d="M489.131,-68.1517C467.451,-58.4296 422.303,-38.1831 394.976,-25.9285"/>
<polygon fill="green" stroke="green" stroke-width="0.267685" points="396.348,-22.7079 385.791,-21.8096 393.484,-29.0951 396.348,-22.7079"/>
</g>
<!-- &#45;5&#45;&gt;5 -->
<g id="edge36" class="edge"><title>&#45;5&#45;&gt;5</title>
<path fill="none" stroke="red" stroke-width="0.289031" d="M501.083,-65.6548C500.74,-59.0498 500.237,-49.3344 499.765,-40.2339"/>
<polygon fill="red" stroke="red" stroke-width="0.289031" points="503.25,-39.8616 499.237,-30.0563 496.259,-40.2242 503.25,-39.8616"/>
</g>
<!-- &#45;6 -->
<g id="node6" class="node"><title>&#45;6</title>
<polygon fill="lightgray" stroke="black" points="381.5,-83.6985 357.5,-83.6985 357.5,-65.6985 381.5,-65.6985 381.5,-83.6985"/>
<text text-anchor="middle" x="369.5" y="-72.4985" font-family="Times New Roman,serif" font-size="9.00">&#45;6</text>
</g>
<!-- &#45;6&#45;&gt;2 -->
<g id="edge5" class="edge"><title>&#45;6&#45;&gt;2</title>
<path fill="none" stroke="green" stroke-width="0.28713" stroke-dasharray="1,5" d="M363.243,-65.6548C357.13,-57.7964 347.592,-45.5348 339.51,-35.1446"/>
<polygon fill="green" stroke="green" stroke-width="0.28713" points="342.072,-32.7387 333.17,-26.9946 336.547,-37.0367 342.072,-32.7387"/>
</g>
<!-- &#45;6&#45;&gt;4 -->
<g id="edge12" class="edge"><title>&#45;6&#45;&gt;4</title>
<path fill="none" stroke="red" stroke-width="0.355825" stroke-dasharray="1,5" d="M369.917,-65.6548C370.26,-59.0498 370.763,-49.3344 371.235,-40.2339"/>
<polygon fill="red" stroke="red" stroke-width="0.355825" points="374.741,-40.2242 371.763,-30.0563 367.75,-39.8616 374.741,-40.2242"/>
</g>
<!-- &#45;6&#45;&gt;5 -->
<g id="edge35" class="edge"><title>&#45;6&#45;&gt;5</title>
<path fill="none" stroke="green" stroke-width="0.129716" d="M381.869,-68.1517C403.549,-58.4296 448.697,-38.1831 476.024,-25.9285"/>
<polygon fill="green" stroke="green" stroke-width="0.129716" points="477.516,-29.0951 485.209,-21.8096 474.652,-22.7079 477.516,-29.0951"/>
</g>
<!-- &#45;6&#45;&gt;6 -->
<g id="edge39" class="edge"><title>&#45;6&#45;&gt;6</title>
<path fill="none" stroke="green" stroke-width="0.602689" stroke-dasharray="1,5" d="M357.398,-69.2926C354.182,-68.1229 350.71,-66.8617 347.5,-65.6985 307.151,-51.0749 260.141,-34.109 232.713,-24.2174"/>
<polygon fill="green" stroke="green" stroke-width="0.602689" points="233.809,-20.892 223.214,-20.7923 231.434,-27.4769 233.809,-20.892"/>
</g>
<!-- &#45;7 -->
<g id="node7" class="node"><title>&#45;7</title>
<polygon fill="lightgray" stroke="black" points="471.5,-83.6985 447.5,-83.6985 447.5,-65.6985 471.5,-65.6985 471.5,-83.6985"/>
<text text-anchor="middle" x="459.5" y="-72.4985" font-family="Times New Roman,serif" font-size="9.00">&#45;7</text>
</g>
<!-- &#45;7&#45;&gt;2 -->
<g id="edge14" class="edge"><title>&#45;7&#45;&gt;2</title>
<path fill="none" stroke="green" stroke-width="0.162611" stroke-dasharray="1,5" d="M447.459,-69.1808C422.705,-59.8514 366.883,-38.587 348.5,-29.6985 347.666,-29.2954 346.822,-28.8746 345.974,-28.441"/>
<polygon fill="green" stroke="green" stroke-width="0.162611" points="347.469,-25.2694 337.018,-23.5332 344.106,-31.4082 347.469,-25.2694"/>
</g>
<!-- &#45;7&#45;&gt;4 -->
<g id="edge38" class="edge"><title>&#45;7&#45;&gt;4</title>
<path fill="none" stroke="green" stroke-width="0.912194" d="M447.403,-65.6548C433.379,-56.3294 410.029,-40.8037 393.123,-29.5624"/>
<polygon fill="green" stroke="green" stroke-width="0.912194" points="394.759,-26.4472 384.494,-23.8246 390.883,-32.2762 394.759,-26.4472"/>
</g>
<!-- &#45;8 -->
<g id="node8" class="node"><title>&#45;8</title>
<polygon fill="lightgray" stroke="black" points="645.5,-83.6985 621.5,-83.6985 621.5,-65.6985 645.5,-65.6985 645.5,-83.6985"/>
<text text-anchor="middle" x="633.5" y="-72.4985" font-family="Times New Roman,serif" font-size="9.00">&#45;8</text>
</g>
<!-- &#45;9 -->
<g id="node9" class="node"><title>&#45;9</title>
<polygon fill="lightgray" stroke="black" points="71.5,-83.6985 47.5,-83.6985 47.5,-65.6985 71.5,-65.6985 71.5,-83.6985"/>
<text text-anchor="middle" x="59.5" y="-72.4985" font-family="Times New Roman,serif" font-size="9.00">&#45;9</text>
</g>
<!-- &#45;9&#45;&gt;2 -->
<g id="edge26" class="edge"><title>&#45;9&#45;&gt;2</title>
<path fill="none" stroke="red" stroke-width="0.832691" stroke-dasharray="1,5" d="M71.8001,-68.5388C74.623,-67.4879 77.6369,-66.4696 80.5,-65.6985 176.169,-39.9318 207.186,-63 300.5,-29.6985 301.372,-29.3872 302.249,-29.0445 303.125,-28.6767"/>
<polygon fill="red" stroke="red" stroke-width="0.832691" points="304.87,-31.7163 312.209,-24.0758 301.707,-25.4715 304.87,-31.7163"/>
</g>
<!-- &#45;9&#45;&gt;6 -->
<g id="edge24" class="edge"><title>&#45;9&#45;&gt;6</title>
<path fill="none" stroke="red" stroke-width="0.448966" d="M71.5216,-69.0622C96.3632,-59.4818 153.736,-37.3552 186.133,-24.8609"/>
<polygon fill="red" stroke="red" stroke-width="0.448966" points="187.63,-28.0349 195.701,-21.1709 185.112,-21.5037 187.63,-28.0349"/>
</g>
<!-- 7 -->
<g id="node25" class="node"><title>7</title>
<ellipse fill="lightblue" stroke="black" cx="36.5" cy="-14.8492" rx="14.7" ry="14.7"/>
<text text-anchor="middle" x="36.5" y="-12.6492" font-family="Times New Roman,serif" font-size="9.00">7</text>
</g>
<!-- &#45;9&#45;&gt;7 -->
<g id="edge7" class="edge"><title>&#45;9&#45;&gt;7</title>
<path fill="none" stroke="red" stroke-width="0.142831" d="M56.3019,-65.6548C53.517,-58.6501 49.3411,-48.1471 45.5411,-38.5892"/>
<polygon fill="red" stroke="red" stroke-width="0.142831" points="48.7381,-37.1567 41.7911,-29.1573 42.2333,-39.7429 48.7381,-37.1567"/>
</g>
<!-- &#45;10 -->
<g id="node10" class="node"><title>&#45;10</title>
<polygon fill="lightgray" stroke="black" points="339,-83.6985 310,-83.6985 310,-65.6985 339,-65.6985 339,-83.6985"/>
<text text-anchor="middle" x="324.5" y="-72.4985" font-family="Times New Roman,serif" font-size="9.00">&#45;10</text>
</g>
<!-- &#45;10&#45;&gt;1 -->
<g id="edge9" class="edge"><title>&#45;10&#45;&gt;1</title>
<path fill="none" stroke="green" stroke-width="0.178944" stroke-dasharray="1,5" d="M309.791,-68.748C306.724,-67.7291 303.509,-66.6709 300.5,-65.6985 249.538,-49.2297 236.489,-46.0848 185.5,-29.6985 179.506,-27.7722 173.043,-25.659 167.026,-23.6763"/>
<polygon fill="green" stroke="green" stroke-width="0.178944" points="168.076,-20.3372 157.483,-20.5187 165.877,-26.9829 168.076,-20.3372"/>
</g>
<!-- &#45;10&#45;&gt;2 -->
<g id="edge3" class="edge"><title>&#45;10&#45;&gt;2</title>
<path fill="none" stroke="green" stroke-width="1.30856" d="M324.5,-65.6548C324.5,-59.0498 324.5,-49.3344 324.5,-40.2339"/>
<polygon fill="green" stroke="green" stroke-width="1.30856" points="328,-40.0563 324.5,-30.0563 321,-40.0564 328,-40.0563"/>
</g>
<!-- &#45;10&#45;&gt;3 -->
<g id="edge40" class="edge"><title>&#45;10&#45;&gt;3</title>
<path fill="none" stroke="red" stroke-width="0.322804" d="M317.826,-65.6548C311.24,-57.7178 300.928,-45.2891 292.252,-34.8334"/>
<polygon fill="red" stroke="red" stroke-width="0.322804" points="294.827,-32.4555 285.748,-26.9946 289.44,-36.9253 294.827,-32.4555"/>
</g>
<!-- &#45;10&#45;&gt;4 -->
<g id="edge33" class="edge"><title>&#45;10&#45;&gt;4</title>
<path fill="none" stroke="green" stroke-width="0.267428" d="M331.174,-65.6548C337.76,-57.7178 348.072,-45.2891 356.748,-34.8334"/>
<polygon fill="green" stroke="green" stroke-width="0.267428" points="359.56,-36.9253 363.252,-26.9946 354.173,-32.4555 359.56,-36.9253"/>
</g>
<!-- &#45;10&#45;&gt;5 -->
<g id="edge13" class="edge"><title>&#45;10&#45;&gt;5</title>
<path fill="none" stroke="green" stroke-width="0.274033" d="M339.222,-68.7887C342.288,-67.7668 345.5,-66.6971 348.5,-65.6985 393.025,-50.8793 444.994,-33.6158 474.597,-23.7855"/>
<polygon fill="green" stroke="green" stroke-width="0.274033" points="476.049,-26.9915 484.436,-20.5184 473.843,-20.3481 476.049,-26.9915"/>
</g>
<!-- &#45;11 -->
<g id="node11" class="node"><title>&#45;11</title>
<polygon fill="lightgray" stroke="black" points="693,-83.6985 664,-83.6985 664,-65.6985 693,-65.6985 693,-83.6985"/>
<text text-anchor="middle" x="678.5" y="-72.4985" font-family="Times New Roman,serif" font-size="9.00">&#45;11</text>
</g>
<!-- &#45;12 -->
<g id="node12" class="node"><title>&#45;12</title>
<polygon fill="lightgray" stroke="black" points="245,-83.6985 216,-83.6985 216,-65.6985 245,-65.6985 245,-83.6985"/>
<text text-anchor="middle" x="230.5" y="-72.4985" font-family="Times New Roman,serif" font-size="9.00">&#45;12</text>
</g>
<!-- &#45;12&#45;&gt;3 -->
<g id="edge23" class="edge"><title>&#45;12&#45;&gt;3</title>
<path fill="none" stroke="red" stroke-width="0.880133" stroke-dasharray="1,5" d="M236.896,-65.6548C243.207,-57.7178 253.09,-45.2891 261.404,-34.8334"/>
<polygon fill="red" stroke="red" stroke-width="0.880133" points="264.153,-37.0001 267.638,-26.9946 258.674,-32.6433 264.153,-37.0001"/>
</g>
<!-- &#45;12&#45;&gt;4 -->
<g id="edge16" class="edge"><title>&#45;12&#45;&gt;4</title>
<path fill="none" stroke="red" stroke-width="0.262083" d="M245.377,-68.5003C272.631,-58.92 329.511,-38.6414 348.5,-29.6985 349.338,-29.3039 350.185,-28.8904 351.036,-28.463"/>
<polygon fill="red" stroke="red" stroke-width="0.262083" points="352.894,-31.4367 360.006,-23.5837 349.549,-25.2876 352.894,-31.4367"/>
</g>
<!-- &#45;12&#45;&gt;6 -->
<g id="edge41" class="edge"><title>&#45;12&#45;&gt;6</title>
<path fill="none" stroke="red" stroke-width="0.360036" d="M227.58,-65.6548C225.037,-58.6501 221.225,-48.1471 217.755,-38.5892"/>
<polygon fill="red" stroke="red" stroke-width="0.360036" points="221.033,-37.3628 214.331,-29.1573 214.453,-39.7515 221.033,-37.3628"/>
</g>
<!-- &#45;13 -->
<g id="node13" class="node"><title>&#45;13</title>
<polygon fill="lightgray" stroke="black" points="429,-83.6985 400,-83.6985 400,-65.6985 429,-65.6985 429,-83.6985"/>
<text text-anchor="middle" x="414.5" y="-72.4985" font-family="Times New Roman,serif" font-size="9.00">&#45;13</text>
</g>
<!-- &#45;13&#45;&gt;0 -->
<g id="edge29" class="edge"><title>&#45;13&#45;&gt;0</title>
<path fill="none" stroke="green" stroke-width="0.196862" stroke-dasharray="1,5" d="M429.1,-68.4748C450.116,-60.7937 489.948,-45.6291 522.5,-29.6985 523.332,-29.2914 524.174,-28.8673 525.021,-28.4309"/>
<polygon fill="green" stroke="green" stroke-width="0.196862" points="526.894,-31.395 533.971,-23.5099 523.522,-25.2611 526.894,-31.395"/>
</g>
<!-- &#45;13&#45;&gt;2 -->
<g id="edge34" class="edge"><title>&#45;13&#45;&gt;2</title>
<path fill="none" stroke="green" stroke-width="0.459384" d="M401.986,-65.6548C387.261,-56.1902 362.6,-40.3388 345.056,-29.0619"/>
<polygon fill="green" stroke="green" stroke-width="0.459384" points="346.925,-26.1026 336.62,-23.6398 343.14,-31.9911 346.925,-26.1026"/>
</g>
<!-- &#45;13&#45;&gt;3 -->
<g id="edge15" class="edge"><title>&#45;13&#45;&gt;3</title>
<path fill="none" stroke="red" stroke-width="0.137989" stroke-dasharray="1,5" d="M399.8,-68.8454C377.787,-61.3962 335.145,-46.2573 300.5,-29.6985 299.664,-29.2991 298.819,-28.8815 297.97,-28.4507"/>
<polygon fill="red" stroke="red" stroke-width="0.137989" points="299.461,-25.2774 289.007,-23.5555 296.106,-31.4207 299.461,-25.2774"/>
</g>
<!-- &#45;14 -->
<g id="node14" class="node"><title>&#45;14</title>
<polygon fill="lightgray" stroke="black" points="292,-83.6985 263,-83.6985 263,-65.6985 292,-65.6985 292,-83.6985"/>
<text text-anchor="middle" x="277.5" y="-72.4985" font-family="Times New Roman,serif" font-size="9.00">&#45;14</text>
</g>
<!-- &#45;14&#45;&gt;2 -->
<g id="edge31" class="edge"><title>&#45;14&#45;&gt;2</title>
<path fill="none" stroke="green" stroke-width="0.885469" stroke-dasharray="1,5" d="M284.035,-65.6548C290.484,-57.7178 300.581,-45.2891 309.076,-34.8334"/>
<polygon fill="green" stroke="green" stroke-width="0.885469" points="311.856,-36.9629 315.445,-26.9946 306.423,-32.5489 311.856,-36.9629"/>
</g>
<!-- &#45;14&#45;&gt;3 -->
<g id="edge22" class="edge"><title>&#45;14&#45;&gt;3</title>
<path fill="none" stroke="green" stroke-width="0.182258" d="M277.361,-65.6548C277.247,-59.0498 277.079,-49.3344 276.922,-40.2339"/>
<polygon fill="green" stroke="green" stroke-width="0.182258" points="280.418,-39.9943 276.746,-30.0563 273.419,-40.1153 280.418,-39.9943"/>
</g>
<!-- &#45;15 -->
<g id="node15" class="node"><title>&#45;15</title>
<polygon fill="lightgray" stroke="black" points="29,-83.6985 0,-83.6985 0,-65.6985 29,-65.6985 29,-83.6985"/>
<text text-anchor="middle" x="14.5" y="-72.4985" font-family="Times New Roman,serif" font-size="9.00">&#45;15</text>
</g>
<!-- &#45;15&#45;&gt;1 -->
<g id="edge1" class="edge"><title>&#45;15&#45;&gt;1</title>
<path fill="none" stroke="red" stroke-width="0.635674" d="M29.2979,-67.0624C51.7148,-57.0097 94.455,-37.8432 120.816,-26.0217"/>
<polygon fill="red" stroke="red" stroke-width="0.635674" points="122.349,-29.1704 130.041,-21.8849 119.484,-22.7832 122.349,-29.1704"/>
</g>
<!-- &#45;15&#45;&gt;7 -->
<g id="edge11" class="edge"><title>&#45;15&#45;&gt;7</title>
<path fill="none" stroke="red" stroke-width="0.151201" d="M17.559,-65.6548C20.2229,-58.6501 24.2172,-48.1471 27.852,-38.5892"/>
<polygon fill="red" stroke="red" stroke-width="0.151201" points="31.1557,-39.7484 31.4389,-29.1573 24.6128,-37.2601 31.1557,-39.7484"/>
</g>
<!-- &#45;16 -->
<g id="node16" class="node"><title>&#45;16</title>
<polygon fill="lightgray" stroke="black" points="603,-83.6985 574,-83.6985 574,-65.6985 603,-65.6985 603,-83.6985"/>
<text text-anchor="middle" x="588.5" y="-72.4985" font-family="Times New Roman,serif" font-size="9.00">&#45;16</text>
</g>
<!-- &#45;16&#45;&gt;0 -->
<g id="edge27" class="edge"><title>&#45;16&#45;&gt;0</title>
<path fill="none" stroke="red" stroke-width="0.158452" d="M582.66,-65.6548C577.025,-57.8934 568.272,-45.8369 560.789,-35.5302"/>
<polygon fill="red" stroke="red" stroke-width="0.158452" points="563.606,-33.4527 554.898,-27.4169 557.941,-37.5653 563.606,-33.4527"/>
</g>
<!-- &#45;16&#45;&gt;4 -->
<g id="edge8" class="edge"><title>&#45;16&#45;&gt;4</title>
<path fill="none" stroke="red" stroke-width="0.171999" stroke-dasharray="1,5" d="M573.827,-68.6325C570.757,-67.622 567.532,-66.5963 564.5,-65.6985 504.692,-47.9885 433.405,-30.3856 396.819,-21.6033"/>
<polygon fill="red" stroke="red" stroke-width="0.171999" points="397.583,-18.1874 387.044,-19.2687 395.957,-24.9959 397.583,-18.1874"/>
</g>
<!-- &#45;16&#45;&gt;5 -->
<g id="edge4" class="edge"><title>&#45;16&#45;&gt;5</title>
<path fill="none" stroke="green" stroke-width="0.110398" stroke-dasharray="1,5" d="M575.986,-65.6548C561.261,-56.1902 536.6,-40.3388 519.056,-29.0619"/>
<polygon fill="green" stroke="green" stroke-width="0.110398" points="520.925,-26.1026 510.62,-23.6398 517.14,-31.9911 520.925,-26.1026"/>
</g>
<!-- &#45;17 -->
<g id="node17" class="node"><title>&#45;17</title>
<polygon fill="lightgray" stroke="black" points="740,-83.6985 711,-83.6985 711,-65.6985 740,-65.6985 740,-83.6985"/>
<text text-anchor="middle" x="725.5" y="-72.4985" font-family="Times New Roman,serif" font-size="9.00">&#45;17</text>
</g>
</g>
</svg>
