<?xml version="1.0" encoding="UTF-8" standalone="no"?>
<!DOCTYPE svg PUBLIC "-//W3C//DTD SVG 1.1//EN"
 "http://www.w3.org/Graphics/SVG/1.1/DTD/svg11.dtd">
<!-- Generated by graphviz version 2.38.0 (20140413.2041)
 -->
<!-- Title: %3 Pages: 1 -->
<svg width="909pt" height="170pt"
 viewBox="0.00 0.00 909.47 170.12" xmlns="http://www.w3.org/2000/svg" xmlns:xlink="http://www.w3.org/1999/xlink">
<g id="graph0" class="graph" transform="scale(1 1) rotate(0) translate(4 166.125)">
<title>%3</title>
<polygon fill="white" stroke="none" points="-4,4 -4,-166.125 905.47,-166.125 905.47,4 -4,4"/>
<!-- &#45;1 -->
<g id="node1" class="node"><title>&#45;1</title>
<polygon fill="lightgray" stroke="black" points="147.256,-95.9117 123.256,-95.9117 123.256,-77.9117 147.256,-77.9117 147.256,-95.9117"/>
<text text-anchor="middle" x="135.256" y="-84.7117" font-family="Times New Roman,serif" font-size="9.00">&#45;1</text>
</g>
<!-- 1 -->
<g id="node19" class="node"><title>1</title>
<ellipse fill="lightblue" stroke="black" cx="362.256" cy="-14.8492" rx="14.7" ry="14.7"/>
<text text-anchor="middle" x="362.256" y="-12.6492" font-family="Times New Roman,serif" font-size="9.00">1</text>
</g>
<!-- &#45;1&#45;&gt;1 -->
<g id="edge1" class="edge"><title>&#45;1&#45;&gt;1</title>
<path fill="none" stroke="green" stroke-width="0.53815" d="M141.811,-77.6461C145.592,-73.4336 150.693,-68.6005 156.256,-65.6985 229.364,-27.5638 261.066,-58.6938 338.256,-29.6985 339.123,-29.3728 339.995,-29.0179 340.867,-28.6398"/>
<polygon fill="green" stroke="green" stroke-width="0.53815" points="342.633,-31.6678 349.935,-23.9908 339.439,-25.4389 342.633,-31.6678"/>
</g>
<!-- 2 -->
<g id="node20" class="node"><title>2</title>
<ellipse fill="lightblue" stroke="black" cx="218.256" cy="-14.8492" rx="14.7" ry="14.7"/>
<text text-anchor="middle" x="218.256" y="-12.6492" font-family="Times New Roman,serif" font-size="9.00">2</text>
</g>
<!-- &#45;1&#45;&gt;2 -->
<g id="edge2" class="edge"><title>&#45;1&#45;&gt;2</title>
<path fill="none" stroke="green" stroke-width="0.297525" stroke-dasharray="1,5" d="M143.275,-77.8677C147.125,-74.0906 151.85,-69.5768 156.256,-65.6985 169.938,-53.656 185.99,-40.7823 198.333,-31.1345"/>
<polygon fill="green" stroke="green" stroke-width="0.297525" points="200.822,-33.633 206.577,-24.7377 196.531,-28.1024 200.822,-33.633"/>
</g>
<!-- 3 -->
<g id="node21" class="node"><title>3</title>
<ellipse fill="lightblue" stroke="black" cx="410.256" cy="-14.8492" rx="14.7" ry="14.7"/>
<text text-anchor="middle" x="410.256" y="-12.6492" font-family="Times New Roman,serif" font-size="9.00">3</text>
</g>
<!-- &#45;1&#45;&gt;3 -->
<g id="edge3" class="edge"><title>&#45;1&#45;&gt;3</title>
<path fill="none" stroke="green" stroke-width="0.954838" d="M141.765,-77.5569C145.533,-73.3182 150.636,-68.4886 156.256,-65.6985 248.932,-19.6917 288.689,-64.1368 386.256,-29.6985 387.13,-29.3903 388.007,-29.0501 388.884,-28.6845"/>
<polygon fill="green" stroke="green" stroke-width="0.954838" points="390.624,-31.7265 397.972,-24.0936 387.468,-25.4784 390.624,-31.7265"/>
</g>
<!-- 5 -->
<g id="node23" class="node"><title>5</title>
<ellipse fill="lightblue" stroke="black" cx="506.256" cy="-14.8492" rx="14.7" ry="14.7"/>
<text text-anchor="middle" x="506.256" y="-12.6492" font-family="Times New Roman,serif" font-size="9.00">5</text>
</g>
<!-- &#45;1&#45;&gt;5 -->
<g id="edge4" class="edge"><title>&#45;1&#45;&gt;5</title>
<path fill="none" stroke="red" stroke-width="0.101387" d="M141.357,-77.8661C145.141,-73.4998 150.391,-68.4465 156.256,-65.6985 288.256,-3.85397 343.735,-75.093 482.256,-29.6985 483.136,-29.4101 484.02,-29.0868 484.901,-28.7354"/>
<polygon fill="red" stroke="red" stroke-width="0.101387" points="486.612,-31.7934 494.012,-24.2109 483.499,-25.5239 486.612,-31.7934"/>
</g>
<!-- 6 -->
<g id="node24" class="node"><title>6</title>
<ellipse fill="lightblue" stroke="black" cx="266.256" cy="-14.8492" rx="14.7" ry="14.7"/>
<text text-anchor="middle" x="266.256" y="-12.6492" font-family="Times New Roman,serif" font-size="9.00">6</text>
</g>
<!-- &#45;1&#45;&gt;6 -->
<g id="edge5" class="edge"><title>&#45;1&#45;&gt;6</title>
<path fill="none" stroke="green" stroke-width="0.549985" d="M142.443,-77.6823C146.25,-73.6831 151.182,-69.0333 156.256,-65.6985 190.885,-42.9429 205.126,-48.0905 242.256,-29.6985 243.086,-29.2874 243.927,-28.8599 244.772,-28.4207"/>
<polygon fill="green" stroke="green" stroke-width="0.549985" points="246.651,-31.3818 253.716,-23.4864 243.269,-25.2527 246.651,-31.3818"/>
</g>
<!-- &#45;2 -->
<g id="node2" class="node"><title>&#45;2</title>
<polygon fill="lightgray" stroke="black" points="189.256,-95.9117 165.256,-95.9117 165.256,-77.9117 189.256,-77.9117 189.256,-95.9117"/>
<text text-anchor="middle" x="177.256" y="-84.7117" font-family="Times New Roman,serif" font-size="9.00">&#45;2</text>
</g>
<!-- 0 -->
<g id="node18" class="node"><title>0</title>
<ellipse fill="lightblue" stroke="black" cx="314.256" cy="-14.8492" rx="14.7" ry="14.7"/>
<text text-anchor="middle" x="314.256" y="-12.6492" font-family="Times New Roman,serif" font-size="9.00">0</text>
</g>
<!-- &#45;2&#45;&gt;0 -->
<g id="edge6" class="edge"><title>&#45;2&#45;&gt;0</title>
<path fill="none" stroke="green" stroke-width="0.104038" d="M184.41,-77.6318C188.209,-73.6196 193.143,-68.9735 198.256,-65.6985 235.231,-42.0174 250.685,-48.725 290.256,-29.6985 291.091,-29.2972 291.936,-28.878 292.784,-28.4457"/>
<polygon fill="green" stroke="green" stroke-width="0.104038" points="294.651,-31.4143 301.744,-23.5441 291.291,-25.2733 294.651,-31.4143"/>
</g>
<!-- &#45;2&#45;&gt;1 -->
<g id="edge7" class="edge"><title>&#45;2&#45;&gt;1</title>
<path fill="none" stroke="green" stroke-width="0.647378" d="M183.878,-77.7704C187.679,-73.5942 192.777,-68.7562 198.256,-65.6985 254.358,-34.3909 278.774,-53.9775 338.256,-29.6985 339.114,-29.3485 339.978,-28.9729 340.843,-28.5774"/>
<polygon fill="green" stroke="green" stroke-width="0.647378" points="342.642,-31.5861 349.878,-23.8472 339.396,-25.3845 342.642,-31.5861"/>
</g>
<!-- &#45;2&#45;&gt;2 -->
<g id="edge8" class="edge"><title>&#45;2&#45;&gt;2</title>
<path fill="none" stroke="green" stroke-width="0.354952" stroke-dasharray="1,5" d="M181.96,-77.8746C187.77,-67.9452 197.877,-50.6741 205.953,-36.8744"/>
<polygon fill="green" stroke="green" stroke-width="0.354952" points="209.111,-38.4067 211.141,-28.0082 203.069,-34.8712 209.111,-38.4067"/>
</g>
<!-- &#45;2&#45;&gt;3 -->
<g id="edge9" class="edge"><title>&#45;2&#45;&gt;3</title>
<path fill="none" stroke="green" stroke-width="0.208524" stroke-dasharray="1,5" d="M183.804,-77.6326C187.583,-73.4161 192.684,-68.5835 198.256,-65.6985 273.804,-26.5828 306.525,-59.3719 386.256,-29.6985 387.124,-29.3755 387.997,-29.0227 388.87,-28.6466"/>
<polygon fill="green" stroke="green" stroke-width="0.208524" points="390.632,-31.6767 397.94,-24.0064 387.444,-25.4448 390.632,-31.6767"/>
</g>
<!-- &#45;2&#45;&gt;5 -->
<g id="edge10" class="edge"><title>&#45;2&#45;&gt;5</title>
<path fill="none" stroke="green" stroke-width="0.118874" d="M183.374,-77.9015C187.163,-73.547 192.413,-68.4937 198.256,-65.6985 313.032,-10.7927 361.674,-70.2925 482.256,-29.6985 483.134,-29.403 484.015,-29.0737 484.895,-28.7173"/>
<polygon fill="green" stroke="green" stroke-width="0.118874" points="486.617,-31.7696 493.998,-24.1691 483.488,-25.5076 486.617,-31.7696"/>
</g>
<!-- &#45;2&#45;&gt;6 -->
<g id="edge11" class="edge"><title>&#45;2&#45;&gt;6</title>
<path fill="none" stroke="red" stroke-width="0.137425" stroke-dasharray="1,5" d="M185.199,-77.7786C189.032,-73.982 193.765,-69.4775 198.256,-65.6985 213.693,-52.7113 232.216,-39.2606 246.029,-29.6091"/>
<polygon fill="red" stroke="red" stroke-width="0.137425" points="248.111,-32.4246 254.346,-23.8584 244.13,-26.6668 248.111,-32.4246"/>
</g>
<!-- 7 -->
<g id="node25" class="node"><title>7</title>
<ellipse fill="lightblue" stroke="black" cx="458.256" cy="-14.8492" rx="14.7" ry="14.7"/>
<text text-anchor="middle" x="458.256" y="-12.6492" font-family="Times New Roman,serif" font-size="9.00">7</text>
</g>
<!-- &#45;2&#45;&gt;7 -->
<g id="edge12" class="edge"><title>&#45;2&#45;&gt;7</title>
<path fill="none" stroke="green" stroke-width="0.306244" d="M183.761,-77.5482C187.528,-73.3069 192.631,-68.4777 198.256,-65.6985 293.384,-18.7047 334.135,-64.8195 434.256,-29.6985 435.13,-29.392 436.008,-29.0532 436.885,-28.6888"/>
<polygon fill="green" stroke="green" stroke-width="0.306244" points="438.623,-31.7322 445.976,-24.1037 435.471,-25.4822 438.623,-31.7322"/>
</g>
<!-- &#45;3 -->
<g id="node3" class="node"><title>&#45;3</title>
<polygon fill="lightgray" stroke="black" points="765.256,-95.9117 741.256,-95.9117 741.256,-77.9117 765.256,-77.9117 765.256,-95.9117"/>
<text text-anchor="middle" x="753.256" y="-84.7117" font-family="Times New Roman,serif" font-size="9.00">&#45;3</text>
</g>
<!-- &#45;3&#45;&gt;1 -->
<g id="edge13" class="edge"><title>&#45;3&#45;&gt;1</title>
<path fill="none" stroke="red" stroke-width="0.120367" d="M747.162,-77.8522C743.38,-73.4813 738.13,-68.428 732.256,-65.6985 592.046,-0.54631 533.327,-77.3815 386.256,-29.6985 385.204,-29.3572 384.147,-28.9655 383.094,-28.5352"/>
<polygon fill="red" stroke="red" stroke-width="0.120367" points="384.505,-25.3267 374.002,-23.9376 381.347,-31.5735 384.505,-25.3267"/>
</g>
<!-- 4 -->
<g id="node22" class="node"><title>4</title>
<ellipse fill="lightblue" stroke="black" cx="554.256" cy="-14.8492" rx="14.7" ry="14.7"/>
<text text-anchor="middle" x="554.256" y="-12.6492" font-family="Times New Roman,serif" font-size="9.00">4</text>
</g>
<!-- &#45;3&#45;&gt;4 -->
<g id="edge14" class="edge"><title>&#45;3&#45;&gt;4</title>
<path fill="none" stroke="green" stroke-width="0.310902" d="M746.608,-77.8169C742.8,-73.6544 737.703,-68.8146 732.256,-65.6985 682.274,-37.1017 614.908,-24.1025 579.085,-18.885"/>
<polygon fill="green" stroke="green" stroke-width="0.310902" points="579.416,-15.3978 569.034,-17.5069 578.466,-22.3329 579.416,-15.3978"/>
</g>
<!-- &#45;3&#45;&gt;5 -->
<g id="edge15" class="edge"><title>&#45;3&#45;&gt;5</title>
<path fill="none" stroke="green" stroke-width="0.418046" stroke-dasharray="1,5" d="M746.723,-77.6041C742.949,-73.3792 737.847,-68.5477 732.256,-65.6985 651.007,-24.29 615.924,-60.9571 530.256,-29.6985 529.386,-29.3811 528.512,-29.0331 527.638,-28.6609"/>
<polygon fill="green" stroke="green" stroke-width="0.418046" points="529.06,-25.4574 518.56,-24.0393 525.884,-31.6955 529.06,-25.4574"/>
</g>
<!-- &#45;3&#45;&gt;7 -->
<g id="edge16" class="edge"><title>&#45;3&#45;&gt;7</title>
<path fill="none" stroke="green" stroke-width="0.295396" stroke-dasharray="1,5" d="M746.761,-77.5294C742.997,-73.2826 737.894,-68.4541 732.256,-65.6985 631.403,-16.3996 588.34,-66.4139 482.256,-29.6985 481.381,-29.3956 480.502,-29.06 479.624,-28.6982"/>
<polygon fill="green" stroke="green" stroke-width="0.295396" points="481.036,-25.4906 470.53,-24.1253 477.891,-31.7445 481.036,-25.4906"/>
</g>
<!-- &#45;4 -->
<g id="node4" class="node"><title>&#45;4</title>
<polygon fill="lightgray" stroke="black" points="57.2563,-95.9117 33.2563,-95.9117 33.2563,-77.9117 57.2563,-77.9117 57.2563,-95.9117"/>
<text text-anchor="middle" x="45.2563" y="-84.7117" font-family="Times New Roman,serif" font-size="9.00">&#45;4</text>
</g>
<!-- &#45;4&#45;&gt;0 -->
<g id="edge17" class="edge"><title>&#45;4&#45;&gt;0</title>
<path fill="none" stroke="red" stroke-width="0.563563" d="M51.7701,-77.5661C55.5392,-73.33 60.6417,-68.5001 66.2563,-65.6985 156.481,-20.6783 195.241,-63.4546 290.256,-29.6985 291.129,-29.3885 292.006,-29.0468 292.882,-28.6799"/>
<polygon fill="red" stroke="red" stroke-width="0.563563" points="294.625,-31.7205 301.968,-24.0831 291.465,-25.4743 294.625,-31.7205"/>
</g>
<!-- &#45;4&#45;&gt;1 -->
<g id="edge18" class="edge"><title>&#45;4&#45;&gt;1</title>
<path fill="none" stroke="red" stroke-width="0.2847" stroke-dasharray="1,5" d="M51.7395,-77.5037C55.4997,-73.2494 60.6033,-68.4219 66.2563,-65.6985 176.115,-12.7729 222.794,-68.9226 338.256,-29.6985 339.133,-29.4006 340.014,-29.0692 340.893,-28.7111"/>
<polygon fill="red" stroke="red" stroke-width="0.2847" points="342.618,-31.7614 349.993,-24.1548 339.484,-25.5021 342.618,-31.7614"/>
</g>
<!-- &#45;4&#45;&gt;6 -->
<g id="edge19" class="edge"><title>&#45;4&#45;&gt;6</title>
<path fill="none" stroke="green" stroke-width="1.25523" d="M51.8184,-77.6605C55.6018,-73.4521 60.7023,-68.6185 66.2563,-65.6985 136.926,-28.5437 167.605,-58.0165 242.256,-29.6985 243.122,-29.37 243.993,-29.0127 244.865,-28.6326"/>
<polygon fill="green" stroke="green" stroke-width="1.25523" points="246.634,-31.6584 253.928,-23.9742 243.434,-25.4325 246.634,-31.6584"/>
</g>
<!-- &#45;5 -->
<g id="node5" class="node"><title>&#45;5</title>
<polygon fill="lightgray" stroke="black" points="681.256,-95.9117 657.256,-95.9117 657.256,-77.9117 681.256,-77.9117 681.256,-95.9117"/>
<text text-anchor="middle" x="669.256" y="-84.7117" font-family="Times New Roman,serif" font-size="9.00">&#45;5</text>
</g>
<!-- &#45;5&#45;&gt;1 -->
<g id="edge20" class="edge"><title>&#45;5&#45;&gt;1</title>
<path fill="none" stroke="red" stroke-width="0.355247" stroke-dasharray="1,5" d="M657.234,-81.1153C645.438,-76.5714 626.854,-69.8432 610.256,-65.6985 512.427,-41.2694 481.271,-63.4546 386.256,-29.6985 385.384,-29.3885 384.507,-29.0468 383.631,-28.6799"/>
<polygon fill="red" stroke="red" stroke-width="0.355247" points="385.047,-25.4743 374.544,-24.0831 381.887,-31.7205 385.047,-25.4743"/>
</g>
<!-- &#45;5&#45;&gt;2 -->
<g id="edge21" class="edge"><title>&#45;5&#45;&gt;2</title>
<path fill="none" stroke="red" stroke-width="1.03432" d="M656.838,-80.7089C645.061,-76.0041 626.763,-69.2821 610.256,-65.6985 449.661,-30.832 398.737,-79.9004 242.256,-29.6985 241.203,-29.3605 240.145,-28.9714 239.092,-28.5432"/>
<polygon fill="red" stroke="red" stroke-width="1.03432" points="240.501,-25.3342 229.997,-23.9536 237.348,-31.5835 240.501,-25.3342"/>
</g>
<!-- &#45;5&#45;&gt;4 -->
<g id="edge22" class="edge"><title>&#45;5&#45;&gt;4</title>
<path fill="none" stroke="green" stroke-width="0.201868" d="M659.392,-77.6774C654.64,-73.8586 648.783,-69.3647 643.256,-65.6985 621.239,-51.0934 594.658,-36.5815 576.309,-27.0142"/>
<polygon fill="green" stroke="green" stroke-width="0.201868" points="577.781,-23.835 567.289,-22.3631 574.573,-30.0567 577.781,-23.835"/>
</g>
<!-- &#45;5&#45;&gt;5 -->
<g id="edge94" class="edge"><title>&#45;5&#45;&gt;5</title>
<path fill="none" stroke="green" stroke-width="0.601154" d="M660.179,-77.5651C655.42,-73.536 649.327,-68.8949 643.256,-65.6985 596.616,-41.1426 578.472,-50.9936 530.256,-29.6985 529.409,-29.3244 528.554,-28.9282 527.696,-28.5154"/>
<polygon fill="green" stroke="green" stroke-width="0.601154" points="529.164,-25.3315 518.695,-23.7044 525.864,-31.505 529.164,-25.3315"/>
</g>
<!-- &#45;5&#45;&gt;7 -->
<g id="edge23" class="edge"><title>&#45;5&#45;&gt;7</title>
<path fill="none" stroke="green" stroke-width="0.200196" d="M660.762,-77.7422C655.97,-73.5577 649.67,-68.7209 643.256,-65.6985 576.93,-34.4406 550.572,-56.3278 482.256,-29.6985 481.393,-29.3622 480.525,-28.9981 479.656,-28.6124"/>
<polygon fill="green" stroke="green" stroke-width="0.200196" points="481.092,-25.4149 470.602,-23.9277 477.875,-31.6319 481.092,-25.4149"/>
</g>
<!-- &#45;6 -->
<g id="node6" class="node"><title>&#45;6</title>
<polygon fill="lightgray" stroke="black" points="553.256,-95.9117 529.256,-95.9117 529.256,-77.9117 553.256,-77.9117 553.256,-95.9117"/>
<text text-anchor="middle" x="541.256" y="-84.7117" font-family="Times New Roman,serif" font-size="9.00">&#45;6</text>
</g>
<!-- &#45;6&#45;&gt;0 -->
<g id="edge24" class="edge"><title>&#45;6&#45;&gt;0</title>
<path fill="none" stroke="red" stroke-width="0.251877" stroke-dasharray="1,5" d="M534.315,-77.6535C530.332,-73.443 524.991,-68.6096 519.256,-65.6985 446.119,-28.5736 415.023,-58.5809 338.256,-29.6985 337.39,-29.3724 336.517,-29.017 335.646,-28.6386"/>
<polygon fill="red" stroke="red" stroke-width="0.251877" points="337.074,-25.4378 326.579,-23.9881 333.879,-31.6663 337.074,-25.4378"/>
</g>
<!-- &#45;6&#45;&gt;1 -->
<g id="edge25" class="edge"><title>&#45;6&#45;&gt;1</title>
<path fill="none" stroke="green" stroke-width="0.122257" stroke-dasharray="1,5" d="M534.234,-77.8076C530.227,-73.6424 524.889,-68.8029 519.256,-65.6985 465.624,-36.1396 442.806,-53.1989 386.256,-29.6985 385.401,-29.3431 384.539,-28.9629 383.675,-28.5635"/>
<polygon fill="green" stroke="green" stroke-width="0.122257" points="385.127,-25.3725 374.648,-23.8152 381.869,-31.5679 385.127,-25.3725"/>
</g>
<!-- &#45;6&#45;&gt;3 -->
<g id="edge26" class="edge"><title>&#45;6&#45;&gt;3</title>
<path fill="none" stroke="green" stroke-width="0.846334" d="M533.658,-77.7109C529.651,-73.7189 524.49,-69.067 519.256,-65.6985 484.757,-43.4952 470.982,-47.9855 434.256,-29.6985 433.427,-29.2857 432.587,-28.8567 431.743,-28.4162"/>
<polygon fill="green" stroke="green" stroke-width="0.846334" points="433.248,-25.2491 422.802,-23.4762 429.862,-31.376 433.248,-25.2491"/>
</g>
<!-- &#45;6&#45;&gt;4 -->
<g id="edge27" class="edge"><title>&#45;6&#45;&gt;4</title>
<path fill="none" stroke="green" stroke-width="0.107889" stroke-dasharray="1,5" d="M542.748,-77.8746C544.474,-68.572 547.395,-52.8252 549.863,-39.5264"/>
<polygon fill="green" stroke="green" stroke-width="0.107889" points="553.33,-40.0263 551.713,-29.5556 546.447,-38.7492 553.33,-40.0263"/>
</g>
<!-- &#45;6&#45;&gt;5 -->
<g id="edge28" class="edge"><title>&#45;6&#45;&gt;5</title>
<path fill="none" stroke="green" stroke-width="0.750101" d="M537.241,-77.8746C532.387,-68.1564 524.019,-51.4054 517.202,-37.7594"/>
<polygon fill="green" stroke="green" stroke-width="0.750101" points="520.184,-35.8985 512.584,-28.5167 513.922,-39.0268 520.184,-35.8985"/>
</g>
<!-- &#45;6&#45;&gt;6 -->
<g id="edge29" class="edge"><title>&#45;6&#45;&gt;6</title>
<path fill="none" stroke="green" stroke-width="0.196291" stroke-dasharray="1,5" d="M534.361,-77.5606C530.392,-73.3229 525.049,-68.4932 519.256,-65.6985 426.463,-20.9302 387.398,-64.0231 290.256,-29.6985 289.383,-29.39 288.506,-29.0495 287.629,-28.6837"/>
<polygon fill="green" stroke="green" stroke-width="0.196291" points="289.045,-25.4777 278.541,-24.0919 285.888,-31.7255 289.045,-25.4777"/>
</g>
<!-- &#45;6&#45;&gt;7 -->
<g id="edge30" class="edge"><title>&#45;6&#45;&gt;7</title>
<path fill="none" stroke="red" stroke-width="0.223068" d="M532.371,-77.5315C528.406,-73.8478 523.646,-69.5032 519.256,-65.6985 505.617,-53.8773 489.83,-40.9967 477.733,-31.2904"/>
<polygon fill="red" stroke="red" stroke-width="0.223068" points="479.659,-28.3494 469.661,-24.8442 475.291,-33.8193 479.659,-28.3494"/>
</g>
<!-- &#45;7 -->
<g id="node7" class="node"><title>&#45;7</title>
<polygon fill="lightgray" stroke="black" points="416.256,-95.9117 392.256,-95.9117 392.256,-77.9117 416.256,-77.9117 416.256,-95.9117"/>
<text text-anchor="middle" x="404.256" y="-84.7117" font-family="Times New Roman,serif" font-size="9.00">&#45;7</text>
</g>
<!-- &#45;7&#45;&gt;0 -->
<g id="edge31" class="edge"><title>&#45;7&#45;&gt;0</title>
<path fill="none" stroke="red" stroke-width="0.405667" d="M395.885,-77.8152C391.858,-74.0266 386.905,-69.5183 382.256,-65.6985 366.67,-52.8913 348.159,-39.4268 334.388,-29.7243"/>
<polygon fill="red" stroke="red" stroke-width="0.405667" points="336.305,-26.7935 326.102,-23.9362 332.296,-32.5321 336.305,-26.7935"/>
</g>
<!-- &#45;7&#45;&gt;3 -->
<g id="edge32" class="edge"><title>&#45;7&#45;&gt;3</title>
<path fill="none" stroke="red" stroke-width="0.256552" d="M404.945,-77.8746C405.729,-68.7202 407.047,-53.3256 408.174,-40.1641"/>
<polygon fill="red" stroke="red" stroke-width="0.256552" points="411.694,-40.0819 409.06,-29.8197 404.719,-39.4845 411.694,-40.0819"/>
</g>
<!-- &#45;7&#45;&gt;5 -->
<g id="edge33" class="edge"><title>&#45;7&#45;&gt;5</title>
<path fill="none" stroke="red" stroke-width="0.157586" stroke-dasharray="1,5" d="M412.065,-77.6129C415.869,-73.78 420.615,-69.2928 425.256,-65.6985 435.681,-57.6247 464.623,-40.2235 484.922,-28.2752"/>
<polygon fill="red" stroke="red" stroke-width="0.157586" points="486.95,-31.1435 493.807,-23.0673 483.41,-25.1043 486.95,-31.1435"/>
</g>
<!-- &#45;7&#45;&gt;6 -->
<g id="edge34" class="edge"><title>&#45;7&#45;&gt;6</title>
<path fill="none" stroke="green" stroke-width="0.456971" stroke-dasharray="1,5" d="M396.697,-77.6494C392.7,-73.6417 387.536,-68.9943 382.256,-65.6985 345.01,-42.4481 329.828,-48.725 290.256,-29.6985 289.422,-29.2972 288.577,-28.878 287.728,-28.4457"/>
<polygon fill="green" stroke="green" stroke-width="0.456971" points="289.222,-25.2733 278.769,-23.5441 285.862,-31.4143 289.222,-25.2733"/>
</g>
<!-- &#45;7&#45;&gt;7 -->
<g id="edge35" class="edge"><title>&#45;7&#45;&gt;7</title>
<path fill="none" stroke="red" stroke-width="0.21099" d="M410.451,-77.8746C418.435,-67.5161 432.576,-49.1677 443.415,-35.1057"/>
<polygon fill="red" stroke="red" stroke-width="0.21099" points="446.319,-37.0709 449.651,-27.0138 440.775,-32.7976 446.319,-37.0709"/>
</g>
<!-- &#45;8 -->
<g id="node8" class="node"><title>&#45;8</title>
<polygon fill="lightgray" stroke="black" points="723.256,-95.9117 699.256,-95.9117 699.256,-77.9117 723.256,-77.9117 723.256,-95.9117"/>
<text text-anchor="middle" x="711.256" y="-84.7117" font-family="Times New Roman,serif" font-size="9.00">&#45;8</text>
</g>
<!-- &#45;8&#45;&gt;3 -->
<g id="edge36" class="edge"><title>&#45;8&#45;&gt;3</title>
<path fill="none" stroke="green" stroke-width="0.33566" d="M704.764,-77.522C701.002,-73.273 695.898,-68.4448 690.256,-65.6985 586.948,-15.411 542.896,-67.0977 434.256,-29.6985 433.381,-29.3971 432.501,-29.0627 431.623,-28.7019"/>
<polygon fill="green" stroke="green" stroke-width="0.33566" points="433.034,-25.4939 422.527,-24.1338 429.892,-31.7494 433.034,-25.4939"/>
</g>
<!-- &#45;8&#45;&gt;4 -->
<g id="edge37" class="edge"><title>&#45;8&#45;&gt;4</title>
<path fill="none" stroke="red" stroke-width="0.231234" d="M704.132,-77.5847C700.341,-73.5606 695.405,-68.918 690.256,-65.6985 654.334,-43.236 606.79,-28.7489 578.48,-21.4686"/>
<polygon fill="red" stroke="red" stroke-width="0.231234" points="579.184,-18.0372 568.636,-19.0295 577.501,-24.8318 579.184,-18.0372"/>
</g>
<!-- &#45;8&#45;&gt;5 -->
<g id="edge38" class="edge"><title>&#45;8&#45;&gt;5</title>
<path fill="none" stroke="red" stroke-width="0.168664" d="M704.671,-77.7037C700.881,-73.508 695.781,-68.6727 690.256,-65.6985 626.075,-31.1502 598.151,-56.2155 530.256,-29.6985 529.394,-29.3616 528.525,-28.9971 527.656,-28.6109"/>
<polygon fill="red" stroke="red" stroke-width="0.168664" points="529.093,-25.4136 518.604,-23.9243 525.875,-31.63 529.093,-25.4136"/>
</g>
<!-- &#45;8&#45;&gt;6 -->
<g id="edge39" class="edge"><title>&#45;8&#45;&gt;6</title>
<path fill="none" stroke="red" stroke-width="0.26204" d="M705.176,-77.8215C701.399,-73.4404 696.149,-68.3871 690.256,-65.6985 527.863,8.39228 460.43,-83.5664 290.256,-29.6985 289.201,-29.3646 288.142,-28.9789 287.088,-28.5534"/>
<polygon fill="red" stroke="red" stroke-width="0.26204" points="288.496,-25.3437 277.99,-23.9737 285.349,-31.5962 288.496,-25.3437"/>
</g>
<!-- &#45;9 -->
<g id="node9" class="node"><title>&#45;9</title>
<polygon fill="lightgray" stroke="black" points="326.256,-95.9117 302.256,-95.9117 302.256,-77.9117 326.256,-77.9117 326.256,-95.9117"/>
<text text-anchor="middle" x="314.256" y="-84.7117" font-family="Times New Roman,serif" font-size="9.00">&#45;9</text>
</g>
<!-- &#45;9&#45;&gt;0 -->
<g id="edge40" class="edge"><title>&#45;9&#45;&gt;0</title>
<path fill="none" stroke="green" stroke-width="0.236086" d="M314.256,-77.8746C314.256,-68.7202 314.256,-53.3256 314.256,-40.1641"/>
<polygon fill="green" stroke="green" stroke-width="0.236086" points="317.756,-39.8196 314.256,-29.8197 310.756,-39.8197 317.756,-39.8196"/>
</g>
<!-- &#45;9&#45;&gt;1 -->
<g id="edge41" class="edge"><title>&#45;9&#45;&gt;1</title>
<path fill="none" stroke="red" stroke-width="0.21073" d="M319.763,-77.8746C326.711,-67.7318 338.909,-49.9283 348.458,-35.9895"/>
<polygon fill="red" stroke="red" stroke-width="0.21073" points="351.505,-37.7349 354.269,-27.5071 345.73,-33.7786 351.505,-37.7349"/>
</g>
<!-- &#45;9&#45;&gt;2 -->
<g id="edge42" class="edge"><title>&#45;9&#45;&gt;2</title>
<path fill="none" stroke="green" stroke-width="0.295925" d="M305.952,-77.7316C301.94,-73.9247 296.98,-69.4251 292.256,-65.6985 275.136,-52.1914 254.466,-38.4647 239.329,-28.8448"/>
<polygon fill="green" stroke="green" stroke-width="0.295925" points="241.029,-25.7798 230.699,-23.4244 237.306,-31.7074 241.029,-25.7798"/>
</g>
<!-- &#45;9&#45;&gt;3 -->
<g id="edge43" class="edge"><title>&#45;9&#45;&gt;3</title>
<path fill="none" stroke="red" stroke-width="0.176635" d="M322.122,-77.6851C325.938,-73.868 330.679,-69.3733 335.256,-65.6985 352.521,-51.838 373.634,-38.0584 389.056,-28.5114"/>
<polygon fill="red" stroke="red" stroke-width="0.176635" points="391.125,-31.3488 397.837,-23.1511 387.478,-25.374 391.125,-31.3488"/>
</g>
<!-- &#45;9&#45;&gt;4 -->
<g id="edge44" class="edge"><title>&#45;9&#45;&gt;4</title>
<path fill="none" stroke="green" stroke-width="0.248904" d="M320.796,-77.6179C324.573,-73.397 329.675,-68.565 335.256,-65.6985 413.654,-25.437 447.558,-60.164 530.256,-29.6985 531.125,-29.3784 531.999,-29.0281 532.873,-28.654"/>
<polygon fill="green" stroke="green" stroke-width="0.248904" points="534.63,-31.6864 541.947,-24.0234 531.449,-25.4513 534.63,-31.6864"/>
</g>
<!-- &#45;9&#45;&gt;5 -->
<g id="edge45" class="edge"><title>&#45;9&#45;&gt;5</title>
<path fill="none" stroke="green" stroke-width="0.267741" d="M320.864,-77.7452C324.661,-73.5616 329.759,-68.7246 335.256,-65.6985 394.181,-33.2593 419.835,-54.7588 482.256,-29.6985 483.116,-29.3535 483.982,-28.982 484.848,-28.5901"/>
<polygon fill="green" stroke="green" stroke-width="0.267741" points="486.641,-31.6027 493.89,-23.8764 483.405,-25.3955 486.641,-31.6027"/>
</g>
<!-- &#45;9&#45;&gt;6 -->
<g id="edge46" class="edge"><title>&#45;9&#45;&gt;6</title>
<path fill="none" stroke="red" stroke-width="0.567118" d="M308.75,-77.8746C301.801,-67.7318 289.604,-49.9283 280.054,-35.9895"/>
<polygon fill="red" stroke="red" stroke-width="0.567118" points="282.782,-33.7786 274.243,-27.5071 277.008,-37.7349 282.782,-33.7786"/>
</g>
<!-- &#45;9&#45;&gt;7 -->
<g id="edge47" class="edge"><title>&#45;9&#45;&gt;7</title>
<path fill="none" stroke="red" stroke-width="0.408259" stroke-dasharray="1,5" d="M321.377,-77.5791C325.167,-73.5536 330.104,-68.9114 335.256,-65.6985 374.985,-40.9266 391.819,-49.474 434.256,-29.6985 435.096,-29.3073 435.945,-28.8967 436.797,-28.4717"/>
<polygon fill="red" stroke="red" stroke-width="0.408259" points="438.65,-31.4481 445.772,-23.6039 435.313,-25.2948 438.65,-31.4481"/>
</g>
<!-- &#45;10 -->
<g id="node10" class="node"><title>&#45;10</title>
<polygon fill="lightgray" stroke="black" points="463.756,-95.9117 434.756,-95.9117 434.756,-77.9117 463.756,-77.9117 463.756,-95.9117"/>
<text text-anchor="middle" x="449.256" y="-84.7117" font-family="Times New Roman,serif" font-size="9.00">&#45;10</text>
</g>
<!-- &#45;10&#45;&gt;0 -->
<g id="edge48" class="edge"><title>&#45;10&#45;&gt;0</title>
<path fill="none" stroke="red" stroke-width="0.28355" d="M440.862,-77.7336C436.465,-73.7474 430.842,-69.0938 425.256,-65.6985 389.497,-43.9635 375.792,-48.1957 338.256,-29.6985 337.426,-29.2891 336.584,-28.8631 335.738,-28.4251"/>
<polygon fill="red" stroke="red" stroke-width="0.28355" points="337.24,-25.2563 326.792,-23.4965 333.862,-31.3874 337.24,-25.2563"/>
</g>
<!-- &#45;10&#45;&gt;1 -->
<g id="edge49" class="edge"><title>&#45;10&#45;&gt;1</title>
<path fill="none" stroke="green" stroke-width="0.257666" d="M439.504,-77.5826C435.167,-73.9083 429.983,-69.557 425.256,-65.6985 410.684,-53.8018 393.98,-40.6038 381.435,-30.7779"/>
<polygon fill="green" stroke="green" stroke-width="0.257666" points="383.526,-27.9704 373.491,-24.5716 379.216,-33.4864 383.526,-27.9704"/>
</g>
<!-- &#45;10&#45;&gt;2 -->
<g id="edge50" class="edge"><title>&#45;10&#45;&gt;2</title>
<path fill="none" stroke="red" stroke-width="0.279679" stroke-dasharray="1,5" d="M441.552,-77.6609C437.169,-73.4527 431.347,-68.619 425.256,-65.6985 350.512,-29.8599 319.87,-58.8068 242.256,-29.6985 241.389,-29.3733 240.517,-29.0187 239.645,-28.641"/>
<polygon fill="red" stroke="red" stroke-width="0.279679" points="241.073,-25.4399 230.577,-23.9935 237.88,-31.6694 241.073,-25.4399"/>
</g>
<!-- &#45;10&#45;&gt;3 -->
<g id="edge51" class="edge"><title>&#45;10&#45;&gt;3</title>
<path fill="none" stroke="red" stroke-width="0.589912" stroke-dasharray="1,5" d="M444.783,-77.8746C439.288,-68.0036 429.754,-50.8771 422.096,-37.1182"/>
<polygon fill="red" stroke="red" stroke-width="0.589912" points="425.087,-35.2967 417.166,-28.2615 418.971,-38.7014 425.087,-35.2967"/>
</g>
<!-- &#45;10&#45;&gt;4 -->
<g id="edge52" class="edge"><title>&#45;10&#45;&gt;4</title>
<path fill="none" stroke="green" stroke-width="0.263589" stroke-dasharray="1,5" d="M457.91,-77.6637C462.098,-73.8419 467.287,-69.3494 472.256,-65.6985 483.026,-57.7862 512.501,-40.2138 533.007,-28.1961"/>
<polygon fill="green" stroke="green" stroke-width="0.263589" points="534.829,-31.1857 541.699,-23.12 531.298,-25.1411 534.829,-31.1857"/>
</g>
<!-- &#45;10&#45;&gt;5 -->
<g id="edge53" class="edge"><title>&#45;10&#45;&gt;5</title>
<path fill="none" stroke="red" stroke-width="0.224444" stroke-dasharray="1,5" d="M455.795,-77.8746C464.222,-67.5161 479.15,-49.1677 490.59,-35.1057"/>
<polygon fill="red" stroke="red" stroke-width="0.224444" points="493.577,-36.9797 497.173,-27.0138 488.147,-32.5621 493.577,-36.9797"/>
</g>
<!-- &#45;10&#45;&gt;7 -->
<g id="edge54" class="edge"><title>&#45;10&#45;&gt;7</title>
<path fill="none" stroke="red" stroke-width="0.184293" stroke-dasharray="1,5" d="M450.289,-77.8746C451.476,-68.6287 453.482,-53.017 455.184,-39.7699"/>
<polygon fill="red" stroke="red" stroke-width="0.184293" points="458.659,-40.1841 456.462,-29.8197 451.716,-39.2922 458.659,-40.1841"/>
</g>
<!-- &#45;11 -->
<g id="node11" class="node"><title>&#45;11</title>
<polygon fill="lightgray" stroke="black" points="725.756,-162.125 696.756,-162.125 696.756,-144.125 725.756,-144.125 725.756,-162.125"/>
<text text-anchor="middle" x="711.256" y="-150.925" font-family="Times New Roman,serif" font-size="9.00">&#45;11</text>
</g>
<!-- &#45;11&#45;&gt;2 -->
<g id="edge55" class="edge"><title>&#45;11&#45;&gt;2</title>
<path fill="none" stroke="red" stroke-width="0.22698" d="M696.549,-151.765C597.894,-149.284 35.5865,-134.032 11.2563,-108.125 -44.749,-48.4888 126.775,-24.854 193.172,-18.0802"/>
<polygon fill="red" stroke="red" stroke-width="0.22698" points="193.612,-21.554 203.227,-17.1024 192.935,-14.5869 193.612,-21.554"/>
</g>
<!-- &#45;11&#45;&gt;4 -->
<g id="edge56" class="edge"><title>&#45;11&#45;&gt;4</title>
<path fill="none" stroke="red" stroke-width="0.422595" stroke-dasharray="1,5" d="M725.803,-150.32C747.866,-146.713 789.137,-136.362 807.256,-108.125 817.44,-92.2551 819.232,-80.2637 807.256,-65.6985 778.543,-30.7752 637.643,-19.9287 579.461,-16.9063"/>
<polygon fill="red" stroke="red" stroke-width="0.422595" points="579.451,-13.4018 569.294,-16.415 579.113,-20.3937 579.451,-13.4018"/>
</g>
<!-- &#45;11&#45;&gt;5 -->
<g id="edge57" class="edge"><title>&#45;11&#45;&gt;5</title>
<path fill="none" stroke="green" stroke-width="1.27002" stroke-dasharray="1,5" d="M725.899,-146.678C741.131,-140.127 764.142,-127.526 774.256,-108.125 782.973,-91.4045 786.578,-79.9718 774.256,-65.6985 738.44,-24.2104 582.02,-47.7144 530.256,-29.6985 529.382,-29.3941 528.503,-29.0572 527.626,-28.6943"/>
<polygon fill="green" stroke="green" stroke-width="1.27002" points="529.038,-25.4871 518.533,-24.1163 525.891,-31.7394 529.038,-25.4871"/>
</g>
<!-- &#45;11&#45;&gt;6 -->
<g id="edge58" class="edge"><title>&#45;11&#45;&gt;6</title>
<path fill="none" stroke="green" stroke-width="0.215072" d="M696.509,-151.746C598.815,-149.169 48.0958,-133.54 24.2563,-108.125 11.3561,-94.3721 12.0574,-80.0771 24.2563,-65.6985 87.7868,9.18367 149.793,-62.7728 242.256,-29.6985 243.128,-29.3866 244.005,-29.0433 244.88,-28.6751"/>
<polygon fill="green" stroke="green" stroke-width="0.215072" points="246.626,-31.7141 253.964,-24.072 243.462,-25.47 246.626,-31.7141"/>
</g>
<!-- &#45;11&#45;&gt;7 -->
<g id="edge59" class="edge"><title>&#45;11&#45;&gt;7</title>
<path fill="none" stroke="red" stroke-width="0.194478" d="M697.814,-144.02C684.591,-135.758 664.133,-122.192 648.256,-108.125 629.309,-91.338 631.74,-79.0863 610.256,-65.6985 560.101,-34.4441 536.716,-52.6447 482.256,-29.6985 481.403,-29.3389 480.542,-28.9551 479.68,-28.5528"/>
<polygon fill="red" stroke="red" stroke-width="0.194478" points="481.135,-25.3633 470.658,-23.7904 477.868,-31.5538 481.135,-25.3633"/>
</g>
<!-- 523 -->
<g id="node26" class="node"><title>523</title>
<ellipse fill="white" stroke="black" cx="880.256" cy="-86.9117" rx="21.4286" ry="21.4286"/>
<text text-anchor="middle" x="880.256" y="-84.7117" font-family="Times New Roman,serif" font-size="9.00">523</text>
</g>
<!-- &#45;11&#45;&gt;523 -->
<g id="edge95" class="edge"><title>&#45;11&#45;&gt;523</title>
<path fill="none" stroke="green" stroke-width="0.307268" d="M726.103,-148.332C751.223,-141.679 803.456,-126.816 845.256,-108.125 847.959,-106.916 850.721,-105.557 853.45,-104.13"/>
<polygon fill="green" stroke="green" stroke-width="0.307268" points="855.414,-107.043 862.464,-99.1348 852.021,-100.92 855.414,-107.043"/>
</g>
<!-- &#45;12 -->
<g id="node12" class="node"><title>&#45;12</title>
<polygon fill="lightgray" stroke="black" points="104.756,-95.9117 75.7563,-95.9117 75.7563,-77.9117 104.756,-77.9117 104.756,-95.9117"/>
<text text-anchor="middle" x="90.2563" y="-84.7117" font-family="Times New Roman,serif" font-size="9.00">&#45;12</text>
</g>
<!-- &#45;12&#45;&gt;1 -->
<g id="edge60" class="edge"><title>&#45;12&#45;&gt;1</title>
<path fill="none" stroke="green" stroke-width="0.261236" d="M97.9205,-77.5758C102.293,-73.3427 108.115,-68.5123 114.256,-65.6985 205.925,-23.6958 243.241,-63.4546 338.256,-29.6985 339.129,-29.3885 340.006,-29.0468 340.882,-28.6799"/>
<polygon fill="green" stroke="green" stroke-width="0.261236" points="342.625,-31.7205 349.968,-24.0831 339.465,-25.4743 342.625,-31.7205"/>
</g>
<!-- &#45;12&#45;&gt;2 -->
<g id="edge61" class="edge"><title>&#45;12&#45;&gt;2</title>
<path fill="none" stroke="green" stroke-width="0.231121" d="M98.7305,-77.8617C103.148,-73.9082 108.765,-69.2451 114.256,-65.6985 140.537,-48.7245 173.481,-33.9 195.163,-24.9247"/>
<polygon fill="green" stroke="green" stroke-width="0.231121" points="196.598,-28.12 204.546,-21.1152 193.964,-21.6341 196.598,-28.12"/>
</g>
<!-- &#45;12&#45;&gt;6 -->
<g id="edge62" class="edge"><title>&#45;12&#45;&gt;6</title>
<path fill="none" stroke="red" stroke-width="0.225661" d="M98.0574,-77.8532C102.469,-73.7012 108.287,-68.86 114.256,-65.6985 166.48,-38.0396 187.797,-52.6447 242.256,-29.6985 243.11,-29.3389 243.97,-28.9551 244.833,-28.5528"/>
<polygon fill="red" stroke="red" stroke-width="0.225661" points="246.645,-31.5538 253.855,-23.7904 243.377,-25.3633 246.645,-31.5538"/>
</g>
<!-- &#45;12&#45;&gt;7 -->
<g id="edge63" class="edge"><title>&#45;12&#45;&gt;7</title>
<path fill="none" stroke="red" stroke-width="0.613634" d="M97.4518,-77.8704C101.85,-73.5056 107.85,-68.4523 114.256,-65.6985 245.742,-9.17609 298.299,-74.4067 434.256,-29.6985 435.136,-29.4092 436.019,-29.0851 436.9,-28.7331"/>
<polygon fill="red" stroke="red" stroke-width="0.613634" points="438.613,-31.7904 446.01,-24.2055 435.497,-25.5219 438.613,-31.7904"/>
</g>
<!-- &#45;13 -->
<g id="node13" class="node"><title>&#45;13</title>
<polygon fill="lightgray" stroke="black" points="373.756,-95.9117 344.756,-95.9117 344.756,-77.9117 373.756,-77.9117 373.756,-95.9117"/>
<text text-anchor="middle" x="359.256" y="-84.7117" font-family="Times New Roman,serif" font-size="9.00">&#45;13</text>
</g>
<!-- &#45;13&#45;&gt;0 -->
<g id="edge64" class="edge"><title>&#45;13&#45;&gt;0</title>
<path fill="none" stroke="green" stroke-width="0.302811" d="M354.094,-77.8746C347.618,-67.7908 336.278,-50.1351 327.348,-36.233"/>
<polygon fill="green" stroke="green" stroke-width="0.302811" points="330.253,-34.2792 321.904,-27.7567 324.364,-38.0622 330.253,-34.2792"/>
</g>
<!-- &#45;13&#45;&gt;2 -->
<g id="edge65" class="edge"><title>&#45;13&#45;&gt;2</title>
<path fill="none" stroke="green" stroke-width="0.493047" d="M350.895,-77.679C346.506,-73.6789 340.881,-69.0294 335.256,-65.6985 297.119,-43.1148 282.236,-48.8314 242.256,-29.6985 241.421,-29.2987 240.576,-28.8808 239.726,-28.4496"/>
<polygon fill="green" stroke="green" stroke-width="0.493047" points="241.218,-25.2765 230.765,-23.5531 237.862,-31.4194 241.218,-25.2765"/>
</g>
<!-- &#45;13&#45;&gt;4 -->
<g id="edge66" class="edge"><title>&#45;13&#45;&gt;4</title>
<path fill="none" stroke="red" stroke-width="0.206816" stroke-dasharray="1,5" d="M367.015,-77.7719C371.415,-73.5961 377.234,-68.7581 383.256,-65.6985 443.225,-35.2317 467.835,-54.7588 530.256,-29.6985 531.116,-29.3535 531.982,-28.982 532.848,-28.5901"/>
<polygon fill="red" stroke="red" stroke-width="0.206816" points="534.641,-31.6027 541.89,-23.8764 531.405,-25.3955 534.641,-31.6027"/>
</g>
<!-- &#45;13&#45;&gt;5 -->
<g id="edge67" class="edge"><title>&#45;13&#45;&gt;5</title>
<path fill="none" stroke="red" stroke-width="0.173679" d="M367.589,-77.6299C371.97,-73.6173 377.598,-68.9714 383.256,-65.6985 423.785,-42.258 439.819,-49.474 482.256,-29.6985 483.096,-29.3073 483.945,-28.8967 484.797,-28.4717"/>
<polygon fill="red" stroke="red" stroke-width="0.173679" points="486.65,-31.4481 493.772,-23.6039 483.313,-25.2948 486.65,-31.4481"/>
</g>
<!-- &#45;13&#45;&gt;6 -->
<g id="edge68" class="edge"><title>&#45;13&#45;&gt;6</title>
<path fill="none" stroke="green" stroke-width="0.109115" stroke-dasharray="1,5" d="M350.043,-77.8767C345.632,-74.1016 340.238,-69.5868 335.256,-65.6985 319.202,-53.1666 300.437,-39.681 286.532,-29.9003"/>
<polygon fill="green" stroke="green" stroke-width="0.109115" points="288.374,-26.9178 278.173,-24.0552 284.362,-32.6543 288.374,-26.9178"/>
</g>
<!-- &#45;13&#45;&gt;7 -->
<g id="edge69" class="edge"><title>&#45;13&#45;&gt;7</title>
<path fill="none" stroke="green" stroke-width="0.368685" d="M368.402,-77.7888C372.798,-73.9945 378.2,-69.4889 383.256,-65.6985 400.971,-52.4183 422.037,-38.577 437.326,-28.859"/>
<polygon fill="green" stroke="green" stroke-width="0.368685" points="439.422,-31.6749 446.017,-23.3829 435.69,-25.7525 439.422,-31.6749"/>
</g>
<!-- &#45;14 -->
<g id="node14" class="node"><title>&#45;14</title>
<polygon fill="lightgray" stroke="black" points="510.756,-95.9117 481.756,-95.9117 481.756,-77.9117 510.756,-77.9117 510.756,-95.9117"/>
<text text-anchor="middle" x="496.256" y="-84.7117" font-family="Times New Roman,serif" font-size="9.00">&#45;14</text>
</g>
<!-- &#45;14&#45;&gt;2 -->
<g id="edge70" class="edge"><title>&#45;14&#45;&gt;2</title>
<path fill="none" stroke="red" stroke-width="0.178993" stroke-dasharray="1,5" d="M488.597,-77.5658C484.226,-73.3297 478.403,-68.4998 472.256,-65.6985 378.106,-22.7911 339.824,-64.1368 242.256,-29.6985 241.383,-29.3903 240.505,-29.0501 239.629,-28.6845"/>
<polygon fill="red" stroke="red" stroke-width="0.178993" points="241.045,-25.4784 230.541,-24.0936 237.888,-31.7265 241.045,-25.4784"/>
</g>
<!-- &#45;14&#45;&gt;3 -->
<g id="edge71" class="edge"><title>&#45;14&#45;&gt;3</title>
<path fill="none" stroke="red" stroke-width="0.110004" d="M486.49,-77.6001C482.15,-73.929 476.967,-69.5754 472.256,-65.6985 458.182,-54.1164 442.143,-41.2284 429.904,-31.4588"/>
<polygon fill="red" stroke="red" stroke-width="0.110004" points="431.749,-28.4535 421.746,-24.9594 427.387,-33.9282 431.749,-28.4535"/>
</g>
<!-- &#45;14&#45;&gt;4 -->
<g id="edge72" class="edge"><title>&#45;14&#45;&gt;4</title>
<path fill="none" stroke="red" stroke-width="0.29159" stroke-dasharray="1,5" d="M502.91,-77.8746C511.485,-67.5161 526.674,-49.1677 538.315,-35.1057"/>
<polygon fill="red" stroke="red" stroke-width="0.29159" points="541.333,-36.9487 545.014,-27.0138 535.941,-32.4849 541.333,-36.9487"/>
</g>
<!-- &#45;14&#45;&gt;5 -->
<g id="edge73" class="edge"><title>&#45;14&#45;&gt;5</title>
<path fill="none" stroke="red" stroke-width="0.145203" d="M497.403,-77.8746C498.723,-68.6287 500.951,-53.017 502.842,-39.7699"/>
<polygon fill="red" stroke="red" stroke-width="0.145203" points="506.314,-40.2139 504.262,-29.8197 499.384,-39.2248 506.314,-40.2139"/>
</g>
<!-- &#45;14&#45;&gt;6 -->
<g id="edge74" class="edge"><title>&#45;14&#45;&gt;6</title>
<path fill="none" stroke="green" stroke-width="0.114795" d="M488.551,-77.6635C484.167,-73.4559 478.346,-68.6222 472.256,-65.6985 397.924,-30.0097 367.446,-58.6938 290.256,-29.6985 289.389,-29.3728 288.517,-29.0179 287.645,-28.6398"/>
<polygon fill="green" stroke="green" stroke-width="0.114795" points="289.073,-25.4389 278.578,-23.9908 285.88,-31.6678 289.073,-25.4389"/>
</g>
<!-- &#45;14&#45;&gt;7 -->
<g id="edge75" class="edge"><title>&#45;14&#45;&gt;7</title>
<path fill="none" stroke="red" stroke-width="0.222736" d="M491.897,-77.8746C486.543,-68.0036 477.254,-50.8771 469.792,-37.1182"/>
<polygon fill="red" stroke="red" stroke-width="0.222736" points="472.833,-35.3832 464.988,-28.2615 466.679,-38.7205 472.833,-35.3832"/>
</g>
<!-- &#45;15 -->
<g id="node15" class="node"><title>&#45;15</title>
<polygon fill="lightgray" stroke="black" points="600.756,-95.9117 571.756,-95.9117 571.756,-77.9117 600.756,-77.9117 600.756,-95.9117"/>
<text text-anchor="middle" x="586.256" y="-84.7117" font-family="Times New Roman,serif" font-size="9.00">&#45;15</text>
</g>
<!-- &#45;15&#45;&gt;1 -->
<g id="edge76" class="edge"><title>&#45;15&#45;&gt;1</title>
<path fill="none" stroke="green" stroke-width="1.19464" d="M578.543,-77.6792C574.157,-73.4763 568.336,-68.6419 562.256,-65.6985 490.393,-30.9082 460.908,-58.0165 386.256,-29.6985 385.39,-29.37 384.519,-29.0127 383.648,-28.6326"/>
<polygon fill="green" stroke="green" stroke-width="1.19464" points="385.078,-25.4325 374.584,-23.9742 381.878,-31.6584 385.078,-25.4325"/>
</g>
<!-- &#45;15&#45;&gt;3 -->
<g id="edge77" class="edge"><title>&#45;15&#45;&gt;3</title>
<path fill="none" stroke="green" stroke-width="0.782881" stroke-dasharray="1,5" d="M578.455,-77.8532C574.043,-73.7012 568.226,-68.86 562.256,-65.6985 510.032,-38.0396 488.716,-52.6447 434.256,-29.6985 433.403,-29.3389 432.542,-28.9551 431.68,-28.5528"/>
<polygon fill="green" stroke="green" stroke-width="0.782881" points="433.135,-25.3633 422.658,-23.7904 429.868,-31.5538 433.135,-25.3633"/>
</g>
<!-- &#45;15&#45;&gt;4 -->
<g id="edge78" class="edge"><title>&#45;15&#45;&gt;4</title>
<path fill="none" stroke="red" stroke-width="0.892616" d="M582.586,-77.8746C578.173,-68.2142 570.587,-51.6046 564.375,-38.0034"/>
<polygon fill="red" stroke="red" stroke-width="0.892616" points="567.498,-36.4158 560.159,-28.7738 561.13,-39.324 567.498,-36.4158"/>
</g>
<!-- &#45;15&#45;&gt;5 -->
<g id="edge79" class="edge"><title>&#45;15&#45;&gt;5</title>
<path fill="none" stroke="red" stroke-width="0.321229" d="M577.079,-77.8746C564.428,-66.7944 541.337,-46.5723 524.964,-32.2332"/>
<polygon fill="red" stroke="red" stroke-width="0.321229" points="526.934,-29.306 517.105,-25.3506 522.322,-34.572 526.934,-29.306"/>
</g>
<!-- &#45;15&#45;&gt;6 -->
<g id="edge80" class="edge"><title>&#45;15&#45;&gt;6</title>
<path fill="none" stroke="green" stroke-width="0.283588" stroke-dasharray="1,5" d="M578.623,-77.5076C574.26,-73.2545 568.436,-68.4268 562.256,-65.6985 450.702,-16.446 405.719,-68.9226 290.256,-29.6985 289.379,-29.4006 288.499,-29.0692 287.62,-28.7111"/>
<polygon fill="green" stroke="green" stroke-width="0.283588" points="289.028,-25.5021 278.519,-24.1548 285.894,-31.7614 289.028,-25.5021"/>
</g>
<!-- &#45;15&#45;&gt;7 -->
<g id="edge81" class="edge"><title>&#45;15&#45;&gt;7</title>
<path fill="none" stroke="green" stroke-width="0.351207" d="M577.818,-77.8054C573.409,-73.8376 567.79,-69.1787 562.256,-65.6985 529.251,-44.9413 516.963,-47.4646 482.256,-29.6985 481.432,-29.2765 480.596,-28.8397 479.755,-28.3927"/>
<polygon fill="green" stroke="green" stroke-width="0.351207" points="481.269,-25.2299 470.83,-23.4219 477.863,-31.3454 481.269,-25.2299"/>
</g>
<!-- &#45;16 -->
<g id="node16" class="node"><title>&#45;16</title>
<polygon fill="lightgray" stroke="black" points="283.756,-95.9117 254.756,-95.9117 254.756,-77.9117 283.756,-77.9117 283.756,-95.9117"/>
<text text-anchor="middle" x="269.256" y="-84.7117" font-family="Times New Roman,serif" font-size="9.00">&#45;16</text>
</g>
<!-- &#45;16&#45;&gt;0 -->
<g id="edge82" class="edge"><title>&#45;16&#45;&gt;0</title>
<path fill="none" stroke="green" stroke-width="0.341695" d="M274.418,-77.8746C280.895,-67.7908 292.235,-50.1351 301.164,-36.233"/>
<polygon fill="green" stroke="green" stroke-width="0.341695" points="304.149,-38.0622 306.608,-27.7567 298.259,-34.2792 304.149,-38.0622"/>
</g>
<!-- &#45;16&#45;&gt;1 -->
<g id="edge83" class="edge"><title>&#45;16&#45;&gt;1</title>
<path fill="none" stroke="red" stroke-width="0.423723" d="M278.47,-77.8767C282.88,-74.1016 288.275,-69.5868 293.256,-65.6985 309.311,-53.1666 328.076,-39.681 341.981,-29.9003"/>
<polygon fill="red" stroke="red" stroke-width="0.423723" points="344.15,-32.6543 350.34,-24.0552 340.139,-26.9178 344.15,-32.6543"/>
</g>
<!-- &#45;16&#45;&gt;2 -->
<g id="edge84" class="edge"><title>&#45;16&#45;&gt;2</title>
<path fill="none" stroke="green" stroke-width="0.274321" d="M263.406,-77.8746C255.952,-67.6352 242.816,-49.5885 232.628,-35.5923"/>
<polygon fill="green" stroke="green" stroke-width="0.274321" points="235.457,-33.5322 226.742,-27.5071 229.798,-37.6518 235.457,-33.5322"/>
</g>
<!-- &#45;16&#45;&gt;3 -->
<g id="edge85" class="edge"><title>&#45;16&#45;&gt;3</title>
<path fill="none" stroke="green" stroke-width="0.226092" d="M277.617,-77.679C282.007,-73.6789 287.631,-69.0294 293.256,-65.6985 331.393,-43.1148 346.277,-48.8314 386.256,-29.6985 387.092,-29.2987 387.937,-28.8808 388.786,-28.4496"/>
<polygon fill="green" stroke="green" stroke-width="0.226092" points="390.651,-31.4194 397.748,-23.5531 387.294,-25.2765 390.651,-31.4194"/>
</g>
<!-- &#45;16&#45;&gt;4 -->
<g id="edge86" class="edge"><title>&#45;16&#45;&gt;4</title>
<path fill="none" stroke="green" stroke-width="0.154695" d="M276.911,-77.5547C281.28,-73.3154 287.103,-68.4859 293.256,-65.6985 390.304,-21.735 429.71,-64.9333 530.256,-29.6985 531.13,-29.3922 532.008,-29.0537 532.885,-28.6895"/>
<polygon fill="green" stroke="green" stroke-width="0.154695" points="534.623,-31.7331 541.976,-24.1053 531.471,-25.4829 534.623,-31.7331"/>
</g>
<!-- &#45;16&#45;&gt;6 -->
<g id="edge87" class="edge"><title>&#45;16&#45;&gt;6</title>
<path fill="none" stroke="red" stroke-width="0.120655" d="M268.912,-77.8746C268.52,-68.7202 267.861,-53.3256 267.297,-40.1641"/>
<polygon fill="red" stroke="red" stroke-width="0.120655" points="270.779,-39.6608 266.855,-29.8197 263.786,-39.9603 270.779,-39.6608"/>
</g>
<!-- &#45;16&#45;&gt;7 -->
<g id="edge88" class="edge"><title>&#45;16&#45;&gt;7</title>
<path fill="none" stroke="red" stroke-width="0.358963" d="M277.027,-77.7954C281.43,-73.6265 287.249,-68.7876 293.256,-65.6985 350.774,-36.121 374.355,-54.089 434.256,-29.6985 435.114,-29.3493 435.978,-28.9742 436.844,-28.5793"/>
<polygon fill="red" stroke="red" stroke-width="0.358963" points="438.642,-31.5885 445.88,-23.8515 435.397,-25.3861 438.642,-31.5885"/>
</g>
<!-- &#45;17 -->
<g id="node17" class="node"><title>&#45;17</title>
<polygon fill="lightgray" stroke="black" points="236.756,-95.9117 207.756,-95.9117 207.756,-77.9117 236.756,-77.9117 236.756,-95.9117"/>
<text text-anchor="middle" x="222.256" y="-84.7117" font-family="Times New Roman,serif" font-size="9.00">&#45;17</text>
</g>
<!-- &#45;17&#45;&gt;0 -->
<g id="edge89" class="edge"><title>&#45;17&#45;&gt;0</title>
<path fill="none" stroke="red" stroke-width="0.466319" d="M231.044,-77.8381C235.261,-74.0545 240.436,-69.5438 245.256,-65.6985 261.178,-52.9984 279.953,-39.5257 293.896,-29.7927"/>
<polygon fill="red" stroke="red" stroke-width="0.466319" points="296.056,-32.5546 302.282,-23.9825 292.069,-26.8007 296.056,-32.5546"/>
</g>
<!-- &#45;17&#45;&gt;2 -->
<g id="edge90" class="edge"><title>&#45;17&#45;&gt;2</title>
<path fill="none" stroke="green" stroke-width="0.153398" d="M221.797,-77.8746C221.275,-68.7202 220.396,-53.3256 219.644,-40.1641"/>
<polygon fill="green" stroke="green" stroke-width="0.153398" points="223.118,-39.6039 219.054,-29.8197 216.13,-40.0029 223.118,-39.6039"/>
</g>
<!-- &#45;17&#45;&gt;4 -->
<g id="edge91" class="edge"><title>&#45;17&#45;&gt;4</title>
<path fill="none" stroke="red" stroke-width="0.496878" d="M229.103,-77.9015C233.303,-73.547 239.053,-68.4937 245.256,-65.6985 361.66,-13.2512 409.247,-70.4067 530.256,-29.6985 531.134,-29.4032 532.015,-29.074 532.895,-28.7177"/>
<polygon fill="red" stroke="red" stroke-width="0.496878" points="534.617,-31.7702 541.998,-24.1702 531.488,-25.5081 534.617,-31.7702"/>
</g>
<!-- &#45;17&#45;&gt;5 -->
<g id="edge92" class="edge"><title>&#45;17&#45;&gt;5</title>
<path fill="none" stroke="green" stroke-width="0.34871" d="M229.529,-77.5513C233.698,-73.3109 239.281,-68.4815 245.256,-65.6985 341.836,-20.7165 381.71,-64.9333 482.256,-29.6985 483.13,-29.3922 484.008,-29.0537 484.885,-28.6895"/>
<polygon fill="green" stroke="green" stroke-width="0.34871" points="486.623,-31.7331 493.976,-24.1053 483.471,-25.4829 486.623,-31.7331"/>
</g>
<!-- &#45;17&#45;&gt;6 -->
<g id="edge93" class="edge"><title>&#45;17&#45;&gt;6</title>
<path fill="none" stroke="red" stroke-width="0.849328" d="M227.304,-77.8746C233.636,-67.7908 244.724,-50.1351 253.455,-36.233"/>
<polygon fill="red" stroke="red" stroke-width="0.849328" points="256.424,-38.0866 258.778,-27.7567 250.496,-34.3638 256.424,-38.0866"/>
</g>
<!-- 523&#45;&gt;4 -->
<g id="edge96" class="edge"><title>523&#45;&gt;4</title>
<path fill="none" stroke="red" stroke-width="0.429175" d="M863.043,-74.3545C857.556,-71.1195 851.328,-67.892 845.256,-65.6985 750.942,-31.6242 630.824,-20.5167 579.427,-17.1732"/>
<polygon fill="red" stroke="red" stroke-width="0.429175" points="579.454,-13.6686 569.261,-16.5567 579.031,-20.6557 579.454,-13.6686"/>
</g>
</g>
</svg>
