<?xml version="1.0" encoding="UTF-8" standalone="no"?>
<!DOCTYPE svg PUBLIC "-//W3C//DTD SVG 1.1//EN"
 "http://www.w3.org/Graphics/SVG/1.1/DTD/svg11.dtd">
<!-- Generated by graphviz version 2.38.0 (20140413.2041)
 -->
<!-- Title: %3 Pages: 1 -->
<svg width="896pt" height="380pt"
 viewBox="0.00 0.00 895.75 379.69" xmlns="http://www.w3.org/2000/svg" xmlns:xlink="http://www.w3.org/1999/xlink">
<g id="graph0" class="graph" transform="scale(1 1) rotate(0) translate(4 375.688)">
<title>%3</title>
<polygon fill="white" stroke="none" points="-4,4 -4,-375.688 891.749,-375.688 891.749,4 -4,4"/>
<!-- &#45;1 -->
<g id="node1" class="node"><title>&#45;1</title>
<polygon fill="lightgray" stroke="black" points="24,-355.94 0,-355.94 0,-337.94 24,-337.94 24,-355.94"/>
<text text-anchor="middle" x="12" y="-344.74" font-family="Times New Roman,serif" font-size="9.00">&#45;1</text>
</g>
<!-- &#45;2 -->
<g id="node2" class="node"><title>&#45;2</title>
<polygon fill="lightgray" stroke="black" points="66,-355.94 42,-355.94 42,-337.94 66,-337.94 66,-355.94"/>
<text text-anchor="middle" x="54" y="-344.74" font-family="Times New Roman,serif" font-size="9.00">&#45;2</text>
</g>
<!-- &#45;3 -->
<g id="node3" class="node"><title>&#45;3</title>
<polygon fill="lightgray" stroke="black" points="68,-184.945 44,-184.945 44,-166.945 68,-166.945 68,-184.945"/>
<text text-anchor="middle" x="56" y="-173.745" font-family="Times New Roman,serif" font-size="9.00">&#45;3</text>
</g>
<!-- 2 -->
<g id="node20" class="node"><title>2</title>
<ellipse fill="lightblue" stroke="black" cx="94" cy="-90.4472" rx="14.7" ry="14.7"/>
<text text-anchor="middle" x="94" y="-88.2472" font-family="Times New Roman,serif" font-size="9.00">2</text>
</g>
<!-- &#45;3&#45;&gt;2 -->
<g id="edge10" class="edge"><title>&#45;3&#45;&gt;2</title>
<path fill="none" stroke="green" stroke-width="0.115452" stroke-dasharray="1,5" d="M59.6436,-166.939C65.1718,-154.791 75.8805,-131.261 83.8798,-113.684"/>
<polygon fill="green" stroke="green" stroke-width="0.115452" points="87.2603,-114.706 88.217,-104.154 80.8891,-111.806 87.2603,-114.706"/>
</g>
<!-- &#45;4 -->
<g id="node4" class="node"><title>&#45;4</title>
<polygon fill="lightgray" stroke="black" points="571,-184.945 547,-184.945 547,-166.945 571,-166.945 571,-184.945"/>
<text text-anchor="middle" x="559" y="-173.745" font-family="Times New Roman,serif" font-size="9.00">&#45;4</text>
</g>
<!-- 3 -->
<g id="node21" class="node"><title>3</title>
<ellipse fill="lightblue" stroke="black" cx="384" cy="-14.8492" rx="14.7" ry="14.7"/>
<text text-anchor="middle" x="384" y="-12.6492" font-family="Times New Roman,serif" font-size="9.00">3</text>
</g>
<!-- &#45;4&#45;&gt;3 -->
<g id="edge2" class="edge"><title>&#45;4&#45;&gt;3</title>
<path fill="none" stroke="red" stroke-width="0.328904" stroke-dasharray="1,5" d="M552.98,-166.827C549.072,-161.915 543.666,-155.743 538,-151.196 512.244,-130.527 498.024,-136.745 473,-115.196 451.984,-97.0985 453.408,-86.4432 435,-65.6985 424.625,-54.0065 412.08,-41.7228 402.028,-32.2746"/>
<polygon fill="red" stroke="red" stroke-width="0.328904" points="404.3,-29.6086 394.59,-25.3707 399.538,-34.7391 404.3,-29.6086"/>
</g>
<!-- 5 -->
<g id="node23" class="node"><title>5</title>
<ellipse fill="lightblue" stroke="black" cx="360" cy="-90.4472" rx="14.7" ry="14.7"/>
<text text-anchor="middle" x="360" y="-88.2472" font-family="Times New Roman,serif" font-size="9.00">5</text>
</g>
<!-- &#45;4&#45;&gt;5 -->
<g id="edge18" class="edge"><title>&#45;4&#45;&gt;5</title>
<path fill="none" stroke="red" stroke-width="0.183328" d="M553.714,-166.721C549.944,-161.509 544.419,-155.047 538,-151.196 478.839,-115.701 448.268,-146.916 387,-115.196 383.584,-113.427 380.247,-111.134 377.151,-108.671"/>
<polygon fill="red" stroke="red" stroke-width="0.183328" points="379.428,-106.013 369.623,-101.999 374.785,-111.251 379.428,-106.013"/>
</g>
<!-- 2178 -->
<g id="node26" class="node"><title>2178</title>
<ellipse fill="white" stroke="black" cx="559" cy="-90.4472" rx="25" ry="25"/>
<text text-anchor="middle" x="559" y="-88.2472" font-family="Times New Roman,serif" font-size="9.00">2178</text>
</g>
<!-- &#45;4&#45;&gt;2178 -->
<g id="edge27" class="edge"><title>&#45;4&#45;&gt;2178</title>
<path fill="none" stroke="red" stroke-width="0.182581" d="M559,-166.939C559,-157.387 559,-140.798 559,-125.599"/>
<polygon fill="red" stroke="red" stroke-width="0.182581" points="562.5,-125.402 559,-115.402 555.5,-125.402 562.5,-125.402"/>
</g>
<!-- &#45;5 -->
<g id="node5" class="node"><title>&#45;5</title>
<polygon fill="lightgray" stroke="black" points="324,-184.945 300,-184.945 300,-166.945 324,-166.945 324,-184.945"/>
<text text-anchor="middle" x="312" y="-173.745" font-family="Times New Roman,serif" font-size="9.00">&#45;5</text>
</g>
<!-- &#45;5&#45;&gt;3 -->
<g id="edge6" class="edge"><title>&#45;5&#45;&gt;3</title>
<path fill="none" stroke="red" stroke-width="0.147426" stroke-dasharray="1,5" d="M312.297,-166.749C313.291,-147.833 317.583,-100.112 336,-65.6985 343.157,-52.3251 354.929,-40.0184 365.023,-30.9788"/>
<polygon fill="red" stroke="red" stroke-width="0.147426" points="367.31,-33.6287 372.639,-24.4717 362.763,-28.3068 367.31,-33.6287"/>
</g>
<!-- &#45;5&#45;&gt;5 -->
<g id="edge1" class="edge"><title>&#45;5&#45;&gt;5</title>
<path fill="none" stroke="green" stroke-width="0.905277" stroke-dasharray="1,5" d="M316.602,-166.939C323.73,-154.54 337.675,-130.283 347.839,-112.601"/>
<polygon fill="green" stroke="green" stroke-width="0.905277" points="351.08,-113.986 353.03,-103.572 345.012,-110.497 351.08,-113.986"/>
</g>
<!-- &#45;6 -->
<g id="node6" class="node"><title>&#45;6</title>
<polygon fill="lightgray" stroke="black" points="108,-355.94 84,-355.94 84,-337.94 108,-337.94 108,-355.94"/>
<text text-anchor="middle" x="96" y="-344.74" font-family="Times New Roman,serif" font-size="9.00">&#45;6</text>
</g>
<!-- &#45;6&#45;&gt;3 -->
<g id="edge23" class="edge"><title>&#45;6&#45;&gt;3</title>
<path fill="none" stroke="green" stroke-width="0.304789" stroke-dasharray="1,5" d="M91.2015,-337.803C78.8454,-316.318 46.1272,-255.925 35,-200.693 22.7588,-139.933 21.4114,-104.18 70,-65.6985 114.789,-30.2256 292.485,-19.5255 358.837,-16.7297"/>
<polygon fill="green" stroke="green" stroke-width="0.304789" points="359.334,-20.2129 369.188,-16.3206 359.057,-13.2184 359.334,-20.2129"/>
</g>
<!-- 4 -->
<g id="node22" class="node"><title>4</title>
<ellipse fill="lightblue" stroke="black" cx="177" cy="-90.4472" rx="14.7" ry="14.7"/>
<text text-anchor="middle" x="177" y="-88.2472" font-family="Times New Roman,serif" font-size="9.00">4</text>
</g>
<!-- &#45;6&#45;&gt;4 -->
<g id="edge12" class="edge"><title>&#45;6&#45;&gt;4</title>
<path fill="none" stroke="green" stroke-width="0.499513" d="M95.2377,-337.648C93.0319,-309.759 88.6556,-217.391 120,-151.196 128.455,-133.34 144.326,-117.393 157.177,-106.475"/>
<polygon fill="green" stroke="green" stroke-width="0.499513" points="159.523,-109.079 165.078,-100.057 155.11,-103.646 159.523,-109.079"/>
</g>
<!-- 7 -->
<g id="node25" class="node"><title>7</title>
<ellipse fill="lightblue" stroke="black" cx="139" cy="-261.442" rx="14.7" ry="14.7"/>
<text text-anchor="middle" x="139" y="-259.242" font-family="Times New Roman,serif" font-size="9.00">7</text>
</g>
<!-- &#45;6&#45;&gt;7 -->
<g id="edge3" class="edge"><title>&#45;6&#45;&gt;7</title>
<path fill="none" stroke="green" stroke-width="0.69091" stroke-dasharray="1,5" d="M100.123,-337.934C106.473,-325.604 118.862,-301.547 127.954,-283.892"/>
<polygon fill="green" stroke="green" stroke-width="0.69091" points="131.14,-285.349 132.607,-274.857 124.917,-282.145 131.14,-285.349"/>
</g>
<!-- &#45;7 -->
<g id="node7" class="node"><title>&#45;7</title>
<polygon fill="lightgray" stroke="black" points="444,-355.94 420,-355.94 420,-337.94 444,-337.94 444,-355.94"/>
<text text-anchor="middle" x="432" y="-344.74" font-family="Times New Roman,serif" font-size="9.00">&#45;7</text>
</g>
<!-- &#45;7&#45;&gt;4 -->
<g id="edge5" class="edge"><title>&#45;7&#45;&gt;4</title>
<path fill="none" stroke="red" stroke-width="0.116545" d="M419.778,-344.069C374.383,-336.389 214.898,-302.701 153,-200.693 136.252,-173.094 151.379,-135.268 164.043,-112.138"/>
<polygon fill="red" stroke="red" stroke-width="0.116545" points="167.238,-113.605 169.22,-103.197 161.18,-110.097 167.238,-113.605"/>
</g>
<!-- 1962 -->
<g id="node28" class="node"><title>1962</title>
<ellipse fill="white" stroke="black" cx="681" cy="-261.442" rx="25" ry="25"/>
<text text-anchor="middle" x="681" y="-259.242" font-family="Times New Roman,serif" font-size="9.00">1962</text>
</g>
<!-- &#45;7&#45;&gt;1962 -->
<g id="edge24" class="edge"><title>&#45;7&#45;&gt;1962</title>
<path fill="none" stroke="red" stroke-width="0.205466" d="M444.01,-341.912C480.591,-329.645 591.556,-292.435 647.703,-273.608"/>
<polygon fill="red" stroke="red" stroke-width="0.205466" points="649.15,-276.814 657.519,-270.316 646.925,-270.177 649.15,-276.814"/>
</g>
<!-- &#45;8 -->
<g id="node8" class="node"><title>&#45;8</title>
<polygon fill="lightgray" stroke="black" points="234,-184.945 210,-184.945 210,-166.945 234,-166.945 234,-184.945"/>
<text text-anchor="middle" x="222" y="-173.745" font-family="Times New Roman,serif" font-size="9.00">&#45;8</text>
</g>
<!-- &#45;8&#45;&gt;4 -->
<g id="edge30" class="edge"><title>&#45;8&#45;&gt;4</title>
<path fill="none" stroke="green" stroke-width="0.153178" d="M217.685,-166.939C211.04,-154.609 198.075,-130.552 188.56,-112.897"/>
<polygon fill="green" stroke="green" stroke-width="0.153178" points="191.516,-111.004 183.691,-103.862 185.354,-114.325 191.516,-111.004"/>
</g>
<!-- 1193 -->
<g id="node27" class="node"><title>1193</title>
<ellipse fill="white" stroke="black" cx="249" cy="-90.4472" rx="25" ry="25"/>
<text text-anchor="middle" x="249" y="-88.2472" font-family="Times New Roman,serif" font-size="9.00">1193</text>
</g>
<!-- &#45;8&#45;&gt;1193 -->
<g id="edge29" class="edge"><title>&#45;8&#45;&gt;1193</title>
<path fill="none" stroke="red" stroke-width="0.913434" stroke-dasharray="1,5" d="M224.589,-166.939C227.772,-157.094 233.373,-139.774 238.407,-124.206"/>
<polygon fill="red" stroke="red" stroke-width="0.913434" points="241.856,-124.915 241.603,-114.324 235.196,-122.762 241.856,-124.915"/>
</g>
<!-- &#45;9 -->
<g id="node9" class="node"><title>&#45;9</title>
<polygon fill="lightgray" stroke="black" points="414,-184.945 390,-184.945 390,-166.945 414,-166.945 414,-184.945"/>
<text text-anchor="middle" x="402" y="-173.745" font-family="Times New Roman,serif" font-size="9.00">&#45;9</text>
</g>
<!-- &#45;9&#45;&gt;5 -->
<g id="edge9" class="edge"><title>&#45;9&#45;&gt;5</title>
<path fill="none" stroke="green" stroke-width="0.316275" stroke-dasharray="1,5" d="M397.973,-166.939C391.806,-154.678 379.805,-130.82 370.938,-113.193"/>
<polygon fill="green" stroke="green" stroke-width="0.316275" points="374.012,-111.515 366.392,-104.154 367.759,-114.661 374.012,-111.515"/>
</g>
<!-- &#45;10 -->
<g id="node10" class="node"><title>&#45;10</title>
<polygon fill="lightgray" stroke="black" points="820.5,-355.94 791.5,-355.94 791.5,-337.94 820.5,-337.94 820.5,-355.94"/>
<text text-anchor="middle" x="806" y="-344.74" font-family="Times New Roman,serif" font-size="9.00">&#45;10</text>
</g>
<!-- 1711 -->
<g id="node30" class="node"><title>1711</title>
<ellipse fill="white" stroke="black" cx="806" cy="-261.442" rx="25" ry="25"/>
<text text-anchor="middle" x="806" y="-259.242" font-family="Times New Roman,serif" font-size="9.00">1711</text>
</g>
<!-- &#45;10&#45;&gt;1711 -->
<g id="edge22" class="edge"><title>&#45;10&#45;&gt;1711</title>
<path fill="none" stroke="red" stroke-width="0.147055" d="M806,-337.934C806,-328.382 806,-311.793 806,-296.594"/>
<polygon fill="red" stroke="red" stroke-width="0.147055" points="809.5,-296.397 806,-286.397 802.5,-296.397 809.5,-296.397"/>
</g>
<!-- &#45;11 -->
<g id="node11" class="node"><title>&#45;11</title>
<polygon fill="lightgray" stroke="black" points="568.5,-270.442 539.5,-270.442 539.5,-252.442 568.5,-252.442 568.5,-270.442"/>
<text text-anchor="middle" x="554" y="-259.242" font-family="Times New Roman,serif" font-size="9.00">&#45;11</text>
</g>
<!-- 0 -->
<g id="node18" class="node"><title>0</title>
<ellipse fill="lightblue" stroke="black" cx="604" cy="-175.945" rx="14.7" ry="14.7"/>
<text text-anchor="middle" x="604" y="-173.745" font-family="Times New Roman,serif" font-size="9.00">0</text>
</g>
<!-- &#45;11&#45;&gt;0 -->
<g id="edge4" class="edge"><title>&#45;11&#45;&gt;0</title>
<path fill="none" stroke="green" stroke-width="0.231252" d="M558.794,-252.436C566.219,-240.038 580.744,-215.78 591.333,-198.099"/>
<polygon fill="green" stroke="green" stroke-width="0.231252" points="594.605,-199.447 596.74,-189.069 588.599,-195.85 594.605,-199.447"/>
</g>
<!-- 1438 -->
<g id="node32" class="node"><title>1438</title>
<ellipse fill="white" stroke="black" cx="504" cy="-175.945" rx="25" ry="25"/>
<text text-anchor="middle" x="504" y="-173.745" font-family="Times New Roman,serif" font-size="9.00">1438</text>
</g>
<!-- &#45;11&#45;&gt;1438 -->
<g id="edge17" class="edge"><title>&#45;11&#45;&gt;1438</title>
<path fill="none" stroke="red" stroke-width="0.675238" stroke-dasharray="1,5" d="M549.206,-252.436C542.895,-241.897 531.454,-222.791 521.661,-206.437"/>
<polygon fill="red" stroke="red" stroke-width="0.675238" points="524.573,-204.488 516.433,-197.707 518.568,-208.084 524.573,-204.488"/>
</g>
<!-- &#45;12 -->
<g id="node12" class="node"><title>&#45;12</title>
<polygon fill="lightgray" stroke="black" points="511.5,-99.4472 482.5,-99.4472 482.5,-81.4472 511.5,-81.4472 511.5,-99.4472"/>
<text text-anchor="middle" x="497" y="-88.2472" font-family="Times New Roman,serif" font-size="9.00">&#45;12</text>
</g>
<!-- &#45;12&#45;&gt;3 -->
<g id="edge15" class="edge"><title>&#45;12&#45;&gt;3</title>
<path fill="none" stroke="green" stroke-width="0.502197" d="M487.876,-81.3776C482.3,-76.5993 474.93,-70.5509 468,-65.6985 447.606,-51.4182 422.977,-37.1223 405.678,-27.5252"/>
<polygon fill="green" stroke="green" stroke-width="0.502197" points="407.345,-24.448 396.894,-22.7069 403.978,-30.5852 407.345,-24.448"/>
</g>
<!-- &#45;13 -->
<g id="node13" class="node"><title>&#45;13</title>
<polygon fill="lightgray" stroke="black" points="731.5,-355.94 702.5,-355.94 702.5,-337.94 731.5,-337.94 731.5,-355.94"/>
<text text-anchor="middle" x="717" y="-344.74" font-family="Times New Roman,serif" font-size="9.00">&#45;13</text>
</g>
<!-- 6 -->
<g id="node24" class="node"><title>6</title>
<ellipse fill="lightblue" stroke="black" cx="715" cy="-90.4472" rx="14.7" ry="14.7"/>
<text text-anchor="middle" x="715" y="-88.2472" font-family="Times New Roman,serif" font-size="9.00">6</text>
</g>
<!-- &#45;13&#45;&gt;6 -->
<g id="edge8" class="edge"><title>&#45;13&#45;&gt;6</title>
<path fill="none" stroke="green" stroke-width="0.451397" d="M716.936,-337.76C716.667,-303.535 715.625,-171.032 715.192,-115.816"/>
<polygon fill="green" stroke="green" stroke-width="0.451397" points="718.69,-115.534 715.111,-105.562 711.69,-115.589 718.69,-115.534"/>
</g>
<!-- &#45;13&#45;&gt;1962 -->
<g id="edge19" class="edge"><title>&#45;13&#45;&gt;1962</title>
<path fill="none" stroke="green" stroke-width="0.535473" d="M713.548,-337.934C709.205,-327.86 701.487,-309.96 694.657,-294.117"/>
<polygon fill="green" stroke="green" stroke-width="0.535473" points="697.73,-292.404 690.557,-284.607 691.302,-295.176 697.73,-292.404"/>
</g>
<!-- &#45;14 -->
<g id="node14" class="node"><title>&#45;14</title>
<polygon fill="lightgray" stroke="black" points="281.5,-184.945 252.5,-184.945 252.5,-166.945 281.5,-166.945 281.5,-184.945"/>
<text text-anchor="middle" x="267" y="-173.745" font-family="Times New Roman,serif" font-size="9.00">&#45;14</text>
</g>
<!-- &#45;14&#45;&gt;4 -->
<g id="edge11" class="edge"><title>&#45;14&#45;&gt;4</title>
<path fill="none" stroke="red" stroke-width="0.226951" d="M259.087,-166.939C254.449,-162.291 248.449,-156.354 243,-151.196 227.197,-136.238 208.815,-119.663 195.47,-107.772"/>
<polygon fill="red" stroke="red" stroke-width="0.226951" points="197.681,-105.054 187.88,-101.03 193.032,-110.288 197.681,-105.054"/>
</g>
<!-- &#45;14&#45;&gt;5 -->
<g id="edge14" class="edge"><title>&#45;14&#45;&gt;5</title>
<path fill="none" stroke="green" stroke-width="0.422941" stroke-dasharray="1,5" d="M274.871,-166.893C279.494,-162.231 285.494,-156.293 291,-151.196 307.562,-135.862 327.055,-119.095 341.09,-107.236"/>
<polygon fill="green" stroke="green" stroke-width="0.422941" points="343.648,-109.659 349.048,-100.544 339.142,-104.301 343.648,-109.659"/>
</g>
<!-- &#45;15 -->
<g id="node15" class="node"><title>&#45;15</title>
<polygon fill="lightgray" stroke="black" points="191.5,-184.945 162.5,-184.945 162.5,-166.945 191.5,-166.945 191.5,-184.945"/>
<text text-anchor="middle" x="177" y="-173.745" font-family="Times New Roman,serif" font-size="9.00">&#45;15</text>
</g>
<!-- &#45;15&#45;&gt;2 -->
<g id="edge16" class="edge"><title>&#45;15&#45;&gt;2</title>
<path fill="none" stroke="green" stroke-width="0.294752" stroke-dasharray="1,5" d="M169.042,-166.939C155.882,-153.7 129.283,-126.942 111.551,-109.104"/>
<polygon fill="green" stroke="green" stroke-width="0.294752" points="113.641,-106.241 104.109,-101.617 108.676,-111.176 113.641,-106.241"/>
</g>
<!-- &#45;15&#45;&gt;4 -->
<g id="edge26" class="edge"><title>&#45;15&#45;&gt;4</title>
<path fill="none" stroke="green" stroke-width="0.525337" d="M177,-166.939C177,-155.175 177,-132.737 177,-115.368"/>
<polygon fill="green" stroke="green" stroke-width="0.525337" points="180.5,-115.349 177,-105.349 173.5,-115.349 180.5,-115.349"/>
</g>
<!-- &#45;15&#45;&gt;5 -->
<g id="edge25" class="edge"><title>&#45;15&#45;&gt;5</title>
<path fill="none" stroke="green" stroke-width="0.448402" d="M183.852,-166.565C188.308,-161.554 194.485,-155.37 201,-151.196 224.15,-136.364 297.934,-111.439 336.307,-98.9935"/>
<polygon fill="green" stroke="green" stroke-width="0.448402" points="337.674,-102.23 346.119,-95.8329 335.528,-95.5674 337.674,-102.23"/>
</g>
<!-- &#45;16 -->
<g id="node16" class="node"><title>&#45;16</title>
<polygon fill="lightgray" stroke="black" points="461.5,-184.945 432.5,-184.945 432.5,-166.945 461.5,-166.945 461.5,-184.945"/>
<text text-anchor="middle" x="447" y="-173.745" font-family="Times New Roman,serif" font-size="9.00">&#45;16</text>
</g>
<!-- &#45;16&#45;&gt;5 -->
<g id="edge36" class="edge"><title>&#45;16&#45;&gt;5</title>
<path fill="none" stroke="green" stroke-width="0.400855" d="M438.602,-166.548C434.015,-161.983 428.221,-156.253 423,-151.196 408.079,-136.741 390.966,-120.534 378.344,-108.651"/>
<polygon fill="green" stroke="green" stroke-width="0.400855" points="380.45,-105.827 370.767,-101.527 375.656,-110.927 380.45,-105.827"/>
</g>
<!-- &#45;17 -->
<g id="node17" class="node"><title>&#45;17</title>
<polygon fill="lightgray" stroke="black" points="371.5,-184.945 342.5,-184.945 342.5,-166.945 371.5,-166.945 371.5,-184.945"/>
<text text-anchor="middle" x="357" y="-173.745" font-family="Times New Roman,serif" font-size="9.00">&#45;17</text>
</g>
<!-- &#45;17&#45;&gt;5 -->
<g id="edge7" class="edge"><title>&#45;17&#45;&gt;5</title>
<path fill="none" stroke="red" stroke-width="0.385425" stroke-dasharray="1,5" d="M357.288,-166.939C357.71,-155.175 358.516,-132.737 359.141,-115.368"/>
<polygon fill="red" stroke="red" stroke-width="0.385425" points="362.639,-115.469 359.501,-105.349 355.644,-115.217 362.639,-115.469"/>
</g>
<!-- 1 -->
<g id="node19" class="node"><title>1</title>
<ellipse fill="lightblue" stroke="black" cx="411" cy="-90.4472" rx="14.7" ry="14.7"/>
<text text-anchor="middle" x="411" y="-88.2472" font-family="Times New Roman,serif" font-size="9.00">1</text>
</g>
<!-- 7&#45;&gt;1438 -->
<g id="edge21" class="edge"><title>7&#45;&gt;1438</title>
<path fill="none" stroke="green" stroke-width="0.152812" d="M153.821,-260.007C201.559,-258.147 354.888,-248.57 470,-200.693 472.107,-199.817 474.213,-198.794 476.286,-197.674"/>
<polygon fill="green" stroke="green" stroke-width="0.152812" points="478.368,-200.503 485.067,-192.295 474.711,-194.534 478.368,-200.503"/>
</g>
<!-- 2178&#45;&gt;3 -->
<g id="edge28" class="edge"><title>2178&#45;&gt;3</title>
<path fill="none" stroke="red" stroke-width="0.163509" d="M538.776,-76.1014C532.856,-72.4803 526.284,-68.7275 520,-65.6985 482.036,-47.3995 435.493,-31.6957 407.874,-23.0315"/>
<polygon fill="red" stroke="red" stroke-width="0.163509" points="408.86,-19.673 398.273,-20.0648 406.794,-26.361 408.86,-19.673"/>
</g>
<!-- 1193&#45;&gt;3 -->
<g id="edge13" class="edge"><title>1193&#45;&gt;3</title>
<path fill="none" stroke="red" stroke-width="0.450035" stroke-dasharray="1,5" d="M270.391,-77.7854C295.575,-64.056 337.161,-41.3843 362.425,-27.6115"/>
<polygon fill="red" stroke="red" stroke-width="0.450035" points="364.135,-30.6654 371.24,-22.8058 360.784,-24.5194 364.135,-30.6654"/>
</g>
<!-- 1962&#45;&gt;6 -->
<g id="edge20" class="edge"><title>1962&#45;&gt;6</title>
<path fill="none" stroke="red" stroke-width="0.104951" stroke-dasharray="1,5" d="M687.241,-237.268C690.104,-226.235 693.425,-212.829 696,-200.693 702.187,-171.534 707.841,-137.682 711.343,-115.482"/>
<polygon fill="red" stroke="red" stroke-width="0.104951" points="714.847,-115.726 712.925,-105.306 707.93,-114.649 714.847,-115.726"/>
</g>
<!-- 2213 -->
<g id="node29" class="node"><title>2213</title>
<ellipse fill="white" stroke="black" cx="662" cy="-175.945" rx="25" ry="25"/>
<text text-anchor="middle" x="662" y="-173.745" font-family="Times New Roman,serif" font-size="9.00">2213</text>
</g>
<!-- 1962&#45;&gt;2213 -->
<g id="edge31" class="edge"><title>1962&#45;&gt;2213</title>
<path fill="none" stroke="red" stroke-width="0.100135" d="M675.707,-237.183C673.809,-228.839 671.629,-219.26 669.575,-210.232"/>
<polygon fill="red" stroke="red" stroke-width="0.100135" points="672.962,-209.342 667.33,-200.368 666.136,-210.896 672.962,-209.342"/>
</g>
<!-- 2213&#45;&gt;6 -->
<g id="edge32" class="edge"><title>2213&#45;&gt;6</title>
<path fill="none" stroke="red" stroke-width="0.370986" d="M674.83,-154.732C683.014,-141.838 693.595,-125.17 701.842,-112.177"/>
<polygon fill="red" stroke="red" stroke-width="0.370986" points="704.963,-113.79 707.368,-103.471 699.054,-110.039 704.963,-113.79"/>
</g>
<!-- 2213&#45;&gt;2178 -->
<g id="edge35" class="edge"><title>2213&#45;&gt;2178</title>
<path fill="none" stroke="red" stroke-width="0.252355" d="M643.108,-159.63C626.992,-146.565 603.638,-127.633 585.627,-113.032"/>
<polygon fill="red" stroke="red" stroke-width="0.252355" points="587.744,-110.243 577.772,-106.665 583.336,-115.681 587.744,-110.243"/>
</g>
<!-- 1716 -->
<g id="node31" class="node"><title>1716</title>
<ellipse fill="white" stroke="black" cx="863" cy="-346.94" rx="25" ry="25"/>
<text text-anchor="middle" x="863" y="-344.74" font-family="Times New Roman,serif" font-size="9.00">1716</text>
</g>
<!-- 1438&#45;&gt;1 -->
<g id="edge34" class="edge"><title>1438&#45;&gt;1</title>
<path fill="none" stroke="red" stroke-width="0.451583" d="M486.069,-158.846C469.798,-144.237 445.907,-122.788 429.47,-108.03"/>
<polygon fill="red" stroke="red" stroke-width="0.451583" points="431.414,-105.071 421.634,-100.995 426.737,-110.28 431.414,-105.071"/>
</g>
<!-- 1438&#45;&gt;5 -->
<g id="edge33" class="edge"><title>1438&#45;&gt;5</title>
<path fill="none" stroke="red" stroke-width="0.160372" d="M484.657,-160.439C479.974,-157.21 474.903,-153.935 470,-151.196 434.897,-131.585 420.953,-136.736 387,-115.196 383.956,-113.265 380.911,-110.996 378.021,-108.641"/>
<polygon fill="red" stroke="red" stroke-width="0.160372" points="380.243,-105.935 370.414,-101.981 375.632,-111.202 380.243,-105.935"/>
</g>
</g>
</svg>
